<?xml version="1.0" encoding="UTF-8" ?>
<!DOCTYPE svg PUBLIC "-//W3C//DTD SVG 1.1//EN" "http://www.w3.org/Graphics/SVG/1.1/DTD/svg11.dtd">
<svg width="911pt" height="911pt" viewBox="0 0 911 911" version="1.1" xmlns="http://www.w3.org/2000/svg">
<g id="#051217ff">
<path fill="#051217" stroke="#051217" stroke-width="0.09375" opacity="1.00" d=" M 536.59 102.36 C 537.73 101.67 538.67 100.73 539.37 99.59 C 539.59 100.50 540.02 102.32 540.24 103.23 C 539.33 103.01 537.51 102.58 536.59 102.36 Z" />
<path fill="#051217" stroke="#051217" stroke-width="0.09375" opacity="1.00" d=" M 591.29 108.09 C 592.91 107.54 593.46 108.09 592.93 109.72 C 591.31 110.26 590.76 109.71 591.29 108.09 Z" />
<path fill="#051217" stroke="#051217" stroke-width="0.09375" opacity="1.00" d=" M 471.02 109.09 C 474.00 108.87 476.99 108.50 480.00 108.60 C 481.45 109.80 481.32 112.02 481.99 113.69 C 478.36 113.74 474.72 113.70 471.09 113.73 C 471.06 112.18 471.03 110.64 471.02 109.09 Z" />
<path fill="#051217" stroke="#051217" stroke-width="0.09375" opacity="1.00" d=" M 567.51 117.03 C 567.70 113.85 570.98 113.04 573.47 112.25 C 573.08 114.94 572.67 117.62 572.31 120.30 C 574.16 120.12 576.03 119.93 577.89 119.74 C 577.87 118.19 577.88 116.64 577.83 115.10 C 578.32 115.42 579.30 116.07 579.79 116.39 C 579.79 119.36 579.85 123.24 576.58 124.60 C 571.86 127.06 566.14 122.04 567.51 117.03 Z" />
<path fill="#051217" stroke="#051217" stroke-width="0.09375" opacity="1.00" d=" M 534.73 117.10 C 540.68 118.45 546.51 120.34 552.19 122.57 C 551.47 124.28 550.75 125.99 550.02 127.69 C 544.67 125.48 539.14 123.73 533.54 122.27 C 533.93 120.54 534.33 118.82 534.73 117.10 Z" />
<path fill="#051217" stroke="#051217" stroke-width="0.09375" opacity="1.00" d=" M 632.97 117.17 C 634.58 116.66 635.11 117.22 634.56 118.85 C 632.94 119.37 632.41 118.81 632.97 117.17 Z" />
<path fill="#051217" stroke="#051217" stroke-width="0.09375" opacity="1.00" d=" M 603.15 136.57 C 604.83 132.05 606.62 127.56 608.66 123.19 C 613.51 124.96 618.07 127.42 622.41 130.21 C 621.67 131.65 620.90 133.07 620.10 134.48 C 617.13 133.07 614.15 131.69 611.14 130.38 C 610.08 132.80 609.03 135.21 607.97 137.63 C 606.36 137.27 604.75 136.91 603.15 136.57 Z" />
<path fill="#051217" stroke="#051217" stroke-width="0.09375" opacity="1.00" d=" M 453.77 125.59 C 455.13 125.51 456.50 125.43 457.87 125.35 C 457.71 126.96 457.55 128.57 457.41 130.19 C 456.46 130.03 454.57 129.71 453.63 129.55 C 453.70 128.23 453.75 126.91 453.77 125.59 Z" />
<path fill="#051217" stroke="#051217" stroke-width="0.09375" opacity="1.00" d=" M 504.43 129.10 C 509.77 127.89 515.32 127.76 520.67 128.99 C 520.72 133.89 520.74 138.80 520.79 143.70 C 515.37 143.60 509.96 143.75 504.55 143.78 C 504.51 138.88 504.41 133.99 504.43 129.10 M 509.43 133.37 C 509.45 135.10 509.47 136.83 509.49 138.56 C 511.44 138.49 513.41 138.48 515.36 138.20 C 515.28 136.58 515.10 134.96 514.95 133.35 C 513.10 133.36 511.26 133.37 509.43 133.37 Z" />
<path fill="#051217" stroke="#051217" stroke-width="0.09375" opacity="1.00" d=" M 431.44 129.98 C 435.43 130.19 439.41 130.48 443.39 130.81 C 443.40 132.55 443.41 134.30 443.40 136.04 C 440.78 135.71 438.15 135.39 435.53 135.10 C 435.48 137.79 435.41 140.48 435.35 143.17 C 433.74 143.22 432.15 143.27 430.55 143.32 C 430.85 138.87 431.23 134.43 431.44 129.98 Z" />
<path fill="#051217" stroke="#051217" stroke-width="0.09375" opacity="1.00" d=" M 483.89 132.42 C 486.07 132.61 488.24 132.86 490.41 133.12 C 489.82 134.88 489.27 136.66 488.42 138.31 C 487.30 138.65 486.17 138.93 485.04 139.16 C 484.56 136.93 484.20 134.68 483.89 132.42 Z" />
<path fill="#051217" stroke="#051217" stroke-width="0.09375" opacity="1.00" d=" M 407.39 134.78 C 409.29 134.09 410.18 137.30 408.21 137.71 C 406.38 138.28 405.52 135.25 407.39 134.78 Z" />
<path fill="#051217" stroke="#051217" stroke-width="0.09375" opacity="1.00" d=" M 555.34 136.16 C 556.67 137.46 558.00 138.76 559.34 140.06 C 557.77 142.06 556.18 144.05 554.60 146.04 C 556.44 147.64 558.46 149.07 560.02 150.97 C 558.60 154.45 556.53 157.61 554.75 160.91 C 549.93 158.48 545.04 156.19 540.04 154.15 C 541.22 151.18 542.48 148.25 543.74 145.32 C 541.45 143.46 539.28 141.42 537.70 138.91 C 542.15 136.75 545.95 140.88 550.01 142.12 C 552.13 140.47 553.65 138.21 555.34 136.16 M 547.44 150.48 C 547.28 151.94 547.15 153.41 547.07 154.88 C 549.79 155.75 552.26 155.00 554.16 152.89 C 552.04 151.77 549.83 150.78 547.44 150.48 Z" />
<path fill="#051217" stroke="#051217" stroke-width="0.09375" opacity="1.00" d=" M 580.56 138.79 C 582.78 139.31 584.99 139.87 587.20 140.44 C 585.70 144.05 582.97 147.13 578.85 147.54 C 579.28 144.60 579.91 141.69 580.56 138.79 Z" />
<path fill="#051217" stroke="#051217" stroke-width="0.09375" opacity="1.00" d=" M 464.11 142.28 C 468.04 142.41 471.97 142.47 475.91 142.45 C 476.14 144.29 476.36 146.14 476.57 148.00 C 474.28 147.97 472.00 147.94 469.72 147.92 C 470.07 150.81 470.41 153.70 470.44 156.61 C 468.61 156.98 466.79 157.31 464.96 157.59 C 464.62 152.49 464.34 147.39 464.11 142.28 Z" />
<path fill="#051217" stroke="#051217" stroke-width="0.09375" opacity="1.00" d=" M 634.59 143.19 C 636.49 143.40 638.39 143.64 640.29 143.90 C 640.27 145.46 640.24 147.03 640.16 148.59 C 638.46 149.00 636.77 149.38 635.06 149.70 C 634.91 147.53 634.75 145.36 634.59 143.19 Z" />
<path fill="#051217" stroke="#051217" stroke-width="0.09375" opacity="1.00" d=" M 406.07 156.84 C 408.67 154.27 411.87 152.42 414.92 150.44 C 415.29 151.89 415.66 153.35 416.02 154.81 C 413.49 156.78 410.92 158.71 408.23 160.47 C 407.49 159.27 406.71 158.09 406.07 156.84 Z" />
<path fill="#051217" stroke="#051217" stroke-width="0.09375" opacity="1.00" d=" M 490.58 151.13 C 492.42 150.92 494.27 150.73 496.12 150.56 C 497.04 155.88 498.02 161.19 498.85 166.52 C 496.99 166.62 495.15 166.72 493.30 166.82 C 492.21 161.62 491.14 156.41 490.58 151.13 Z" />
<path fill="#051217" stroke="#051217" stroke-width="0.09375" opacity="1.00" d=" M 608.51 151.29 C 609.88 149.60 611.81 151.01 613.37 151.62 C 616.95 153.48 620.19 156.06 622.92 159.03 C 620.95 162.95 618.28 166.61 614.86 169.39 C 610.30 168.27 605.89 165.53 603.07 161.78 C 602.03 157.57 605.54 153.82 608.51 151.29 M 607.75 158.33 C 609.35 160.41 611.09 162.37 613.03 164.14 C 614.48 162.11 614.90 159.69 614.90 157.25 C 612.50 157.55 610.12 157.90 607.75 158.33 Z" />
<path fill="#051217" stroke="#051217" stroke-width="0.09375" opacity="1.00" d=" M 658.67 151.92 C 663.43 153.76 668.02 156.16 671.64 159.84 C 669.21 165.09 666.44 170.17 663.74 175.28 C 659.03 173.20 654.59 170.61 650.26 167.85 C 652.77 162.39 655.62 157.10 658.67 151.92 M 660.34 160.06 C 659.14 161.92 658.30 163.98 657.38 165.99 C 658.72 166.71 660.09 167.39 661.49 168.01 C 662.69 165.25 663.89 162.49 664.96 159.67 C 663.41 159.76 661.85 159.71 660.34 160.06 Z" />
<path fill="#051217" stroke="#051217" stroke-width="0.09375" opacity="1.00" d=" M 449.21 152.65 C 450.65 153.20 452.29 153.46 453.51 154.46 C 454.56 155.88 454.81 157.69 455.38 159.33 C 453.38 159.15 451.40 158.93 449.43 158.68 C 449.34 156.67 449.25 154.66 449.21 152.65 Z" />
<path fill="#051217" stroke="#051217" stroke-width="0.09375" opacity="1.00" d=" M 424.74 163.33 C 428.75 160.98 432.73 158.61 436.72 156.23 C 439.72 159.67 442.76 163.13 445.06 167.10 C 441.61 170.77 436.96 173.02 432.95 175.99 C 429.95 171.94 427.02 167.83 424.74 163.33 M 431.74 164.75 C 433.09 167.15 434.61 170.49 437.98 169.09 C 437.60 166.82 436.83 164.66 436.01 162.53 C 434.58 163.26 433.16 164.00 431.74 164.75 Z" />
<path fill="#051217" stroke="#051217" stroke-width="0.09375" opacity="1.00" d=" M 517.24 156.16 C 522.50 156.47 527.71 157.26 532.85 158.38 C 531.76 162.98 532.21 168.20 530.07 172.41 C 524.93 171.95 519.84 171.11 514.70 170.58 C 515.37 165.74 516.23 160.93 517.24 156.16 M 521.11 161.70 C 520.98 163.31 520.86 164.93 520.74 166.56 C 522.60 166.63 524.46 166.71 526.34 166.79 C 526.29 165.09 526.26 163.38 526.22 161.69 C 524.51 161.69 522.81 161.70 521.11 161.70 Z" />
<path fill="#051217" stroke="#051217" stroke-width="0.09375" opacity="1.00" d=" M 585.46 162.15 C 586.92 161.50 588.36 160.76 589.91 160.29 C 593.70 162.69 596.12 166.63 598.79 170.13 C 597.03 171.06 595.28 171.98 593.52 172.88 C 591.14 169.07 588.32 165.59 585.46 162.15 Z" />
<path fill="#051217" stroke="#051217" stroke-width="0.09375" opacity="1.00" d=" M 692.33 161.35 C 695.02 159.15 698.79 160.36 701.74 161.34 C 702.46 164.75 697.40 164.45 695.17 164.89 C 695.04 166.86 694.92 168.83 694.81 170.80 C 693.10 170.64 691.39 170.49 689.70 170.36 C 689.97 167.27 689.54 163.45 692.33 161.35 Z" />
<path fill="#051217" stroke="#051217" stroke-width="0.09375" opacity="1.00" d=" M 559.99 173.66 C 563.19 169.09 566.71 164.74 570.78 160.92 C 572.38 162.04 574.03 163.11 575.54 164.36 C 572.73 168.52 568.90 171.84 565.68 175.66 C 563.77 175.00 561.88 174.33 559.99 173.66 Z" />
<path fill="#051217" stroke="#051217" stroke-width="0.09375" opacity="1.00" d=" M 383.44 161.87 C 386.04 163.75 388.00 166.34 388.94 169.44 C 386.42 168.65 383.94 167.76 381.46 166.88 C 382.10 165.20 382.76 163.53 383.44 161.87 Z" />
<path fill="#051217" stroke="#051217" stroke-width="0.09375" opacity="1.00" d=" M 399.38 170.41 C 402.35 169.25 406.01 170.69 407.31 173.63 C 409.50 177.61 406.71 183.62 401.99 183.85 C 398.77 183.66 395.81 181.41 394.46 178.53 C 393.51 175.05 396.29 171.65 399.38 170.41 M 399.17 178.53 C 400.60 179.05 402.04 179.55 403.50 180.04 C 403.50 178.30 403.47 176.57 403.41 174.84 C 402.32 174.13 401.13 173.66 399.83 173.44 C 399.37 175.10 399.28 176.82 399.17 178.53 Z" />
<path fill="#051217" stroke="#051217" stroke-width="0.09375" opacity="1.00" d=" M 459.38 175.48 C 462.40 173.02 466.03 171.02 469.96 170.58 C 473.64 173.08 477.08 177.94 475.59 182.54 C 472.47 185.64 467.93 186.47 463.91 187.83 C 462.02 183.97 458.02 180.13 459.38 175.48 M 465.30 176.18 C 465.26 178.05 465.23 179.91 465.18 181.78 C 466.77 181.68 468.35 181.59 469.95 181.51 C 469.80 179.73 469.65 177.96 469.53 176.19 C 468.11 176.18 466.70 176.18 465.30 176.18 Z" />
<path fill="#051217" stroke="#051217" stroke-width="0.09375" opacity="1.00" d=" M 353.63 171.59 C 355.27 171.58 356.93 171.57 358.59 171.55 C 358.55 173.18 358.51 174.81 358.47 176.45 C 356.91 176.43 355.36 176.41 353.81 176.40 C 353.75 174.79 353.69 173.19 353.63 171.59 Z" />
<path fill="#051217" stroke="#051217" stroke-width="0.09375" opacity="1.00" d=" M 493.26 173.51 C 495.64 173.25 498.01 172.94 500.38 172.56 C 500.46 175.13 500.60 177.71 500.74 180.29 C 509.36 180.48 517.98 180.09 526.61 180.21 C 526.57 182.15 526.55 184.09 526.55 186.03 C 515.97 186.11 505.43 186.97 494.87 187.38 C 494.35 182.75 493.75 178.14 493.26 173.51 Z" />
<path fill="#051217" stroke="#051217" stroke-width="0.09375" opacity="1.00" d=" M 330.25 173.97 C 332.99 173.92 335.73 173.94 338.47 174.07 C 337.95 176.75 338.06 181.97 334.07 181.44 C 330.15 181.54 330.68 176.62 330.25 173.97 M 332.59 175.26 C 332.89 176.79 333.09 178.38 333.93 179.74 C 336.79 179.97 336.19 177.15 336.29 175.22 C 335.37 175.23 333.52 175.25 332.59 175.26 Z" />
<path fill="#051217" stroke="#051217" stroke-width="0.09375" opacity="1.00" d=" M 636.61 174.19 C 637.61 174.24 639.60 174.34 640.60 174.39 C 639.85 175.78 639.05 177.14 638.15 178.43 C 637.62 177.02 637.12 175.60 636.61 174.19 Z" />
<path fill="#051217" stroke="#051217" stroke-width="0.09375" opacity="1.00" d=" M 541.67 174.98 C 543.66 175.16 545.65 175.35 547.65 175.55 C 546.62 180.66 545.51 185.75 544.58 190.88 C 542.84 190.94 541.09 190.99 539.35 191.05 C 539.87 185.66 540.80 180.32 541.67 174.98 Z" />
<path fill="#051217" stroke="#051217" stroke-width="0.09375" opacity="1.00" d=" M 613.22 185.40 C 617.00 181.39 621.14 177.71 625.73 174.64 C 626.89 176.04 628.07 177.45 629.25 178.86 C 628.11 180.13 626.99 181.40 625.87 182.69 C 628.65 185.28 631.34 187.96 633.99 190.69 C 630.56 193.38 627.37 196.64 623.14 198.03 C 618.80 194.75 615.85 190.07 613.22 185.40 M 619.65 188.15 C 621.21 189.24 622.57 191.24 624.72 190.93 C 627.31 189.18 625.97 185.65 625.97 183.10 C 623.77 184.67 621.69 186.39 619.65 188.15 Z" />
<path fill="#051217" stroke="#051217" stroke-width="0.09375" opacity="1.00" d=" M 368.47 178.48 C 373.16 176.65 379.51 183.42 375.63 187.62 C 374.36 189.34 372.76 191.03 370.67 191.70 C 367.62 192.28 365.00 189.79 363.67 187.30 C 362.25 183.67 365.17 179.82 368.47 178.48 M 367.79 182.40 C 368.15 184.49 368.50 186.59 368.88 188.68 C 370.28 187.01 371.62 185.29 372.97 183.57 C 371.24 183.17 369.51 182.78 367.79 182.40 Z" />
<path fill="#051217" stroke="#051217" stroke-width="0.09375" opacity="1.00" d=" M 413.45 177.93 C 415.22 178.41 416.99 178.94 418.74 179.52 C 418.08 181.03 417.44 182.55 416.79 184.07 C 415.11 183.58 413.42 183.10 411.73 182.63 C 412.27 181.05 412.84 179.49 413.45 177.93 Z" />
<path fill="#051217" stroke="#051217" stroke-width="0.09375" opacity="1.00" d=" M 559.48 191.96 C 559.24 186.89 562.26 181.52 567.05 179.57 C 571.68 179.59 575.34 182.88 578.99 185.32 C 577.03 189.59 575.32 194.03 572.63 197.90 C 569.33 198.20 566.00 196.38 562.99 195.06 C 561.61 194.31 560.30 193.32 559.48 191.96 M 565.80 186.47 C 565.72 187.94 565.55 189.42 565.74 190.89 C 566.80 191.93 568.31 192.04 569.69 191.72 C 571.31 190.39 571.36 188.06 572.02 186.21 C 569.94 186.23 567.86 186.32 565.80 186.47 Z" />
<path fill="#051217" stroke="#051217" stroke-width="0.09375" opacity="1.00" d=" M 340.60 183.39 C 342.41 183.26 344.23 183.15 346.04 183.06 C 345.74 185.15 345.45 187.24 345.09 189.32 C 343.27 187.60 341.80 185.58 340.60 183.39 Z" />
<path fill="#051217" stroke="#051217" stroke-width="0.09375" opacity="1.00" d=" M 439.00 190.05 C 441.88 187.17 445.49 185.08 449.07 183.20 C 450.76 184.14 451.44 186.24 452.59 187.73 C 450.48 189.18 448.37 190.63 446.27 192.11 C 447.86 194.91 449.52 197.67 451.16 200.45 C 453.73 198.98 456.29 197.49 458.88 196.04 C 459.83 197.79 460.79 199.53 461.76 201.27 C 457.21 203.60 452.80 206.26 448.03 208.10 C 443.46 203.05 441.58 196.22 439.00 190.05 Z" />
<path fill="#051217" stroke="#051217" stroke-width="0.09375" opacity="1.00" d=" M 672.00 191.79 C 675.51 188.50 679.24 185.44 683.04 182.48 C 687.12 186.67 690.77 191.26 694.09 196.08 C 692.69 197.41 691.29 198.74 689.90 200.07 C 687.45 196.80 684.98 193.54 682.45 190.34 C 680.38 191.95 678.44 193.74 676.14 195.01 C 674.67 194.05 673.35 192.89 672.00 191.79 Z" />
<path fill="#051217" stroke="#051217" stroke-width="0.09375" opacity="1.00" d=" M 591.56 185.15 C 593.54 184.98 596.14 183.27 597.71 185.24 C 600.19 187.92 603.65 190.34 604.90 193.79 C 601.37 197.68 597.12 200.84 593.24 204.36 C 590.76 202.13 588.24 199.95 585.70 197.80 C 586.15 196.59 586.61 195.39 587.08 194.20 C 588.76 195.39 590.45 196.58 592.15 197.78 C 593.86 195.92 595.59 194.06 597.32 192.21 C 595.36 189.89 593.38 187.59 591.56 185.15 Z" />
<path fill="#051217" stroke="#051217" stroke-width="0.09375" opacity="1.00" d=" M 318.27 186.22 C 319.89 185.70 320.45 186.26 319.93 187.88 C 318.30 188.40 317.75 187.85 318.27 186.22 Z" />
<path fill="#051217" stroke="#051217" stroke-width="0.09375" opacity="1.00" d=" M 417.38 199.58 C 419.66 194.06 423.66 189.56 427.74 185.31 C 428.78 186.53 429.82 187.75 430.86 188.98 C 427.66 193.82 423.98 199.69 417.38 199.58 Z" />
<path fill="#051217" stroke="#051217" stroke-width="0.09375" opacity="1.00" d=" M 481.21 188.22 C 482.91 187.67 484.62 187.11 486.32 186.54 C 488.54 192.30 490.56 198.15 492.15 204.13 C 486.61 206.05 481.02 207.88 475.27 209.08 C 473.88 203.40 472.13 197.65 468.29 193.10 C 470.84 192.38 473.36 191.57 475.89 190.77 C 477.06 194.49 478.29 198.19 479.47 201.91 C 481.27 201.67 483.08 201.42 484.89 201.16 C 483.62 196.86 482.40 192.55 481.21 188.22 Z" />
<path fill="#051217" stroke="#051217" stroke-width="0.09375" opacity="1.00" d=" M 648.09 191.80 C 649.79 190.45 651.48 189.09 653.17 187.73 C 656.31 191.65 659.60 195.52 661.97 199.97 C 660.62 201.40 658.96 202.47 657.38 203.61 C 654.95 199.19 651.79 195.23 648.09 191.80 Z" />
<path fill="#051217" stroke="#051217" stroke-width="0.09375" opacity="1.00" d=" M 357.80 190.27 C 358.64 190.30 360.34 190.35 361.19 190.37 C 361.19 191.50 361.20 192.63 361.20 193.77 C 360.35 193.75 358.64 193.73 357.78 193.72 C 357.78 192.57 357.78 191.42 357.80 190.27 Z" />
<path fill="#051217" stroke="#051217" stroke-width="0.09375" opacity="1.00" d=" M 389.33 212.19 C 394.41 204.67 400.25 197.67 406.58 191.17 C 407.90 192.54 409.23 193.90 410.57 195.26 C 404.96 201.81 399.16 208.21 393.65 214.85 C 392.20 213.97 390.75 213.08 389.33 212.19 Z" />
<path fill="#051217" stroke="#051217" stroke-width="0.09375" opacity="1.00" d=" M 383.82 192.81 C 385.15 191.68 386.87 192.68 388.37 192.79 C 386.26 196.50 383.97 200.09 381.76 203.73 C 380.15 202.97 378.54 202.22 376.94 201.48 C 379.03 198.45 380.81 195.04 383.82 192.81 Z" />
<path fill="#051217" stroke="#051217" stroke-width="0.09375" opacity="1.00" d=" M 229.32 194.25 C 230.33 192.71 232.76 194.49 231.61 195.93 C 230.61 197.49 228.17 195.67 229.32 194.25 Z" />
<path fill="#051217" stroke="#051217" stroke-width="0.09375" opacity="1.00" d=" M 327.71 194.10 C 331.61 194.79 335.35 196.11 339.07 197.43 C 337.78 201.60 336.19 205.83 332.88 208.85 C 332.93 206.25 333.28 203.66 333.10 201.07 C 331.46 198.63 329.29 196.59 327.71 194.10 Z" />
<path fill="#051217" stroke="#051217" stroke-width="0.09375" opacity="1.00" d=" M 298.80 196.17 C 299.01 194.43 301.47 195.31 302.67 194.77 C 302.73 195.70 302.87 197.54 302.93 198.47 C 301.49 198.04 297.82 198.76 298.80 196.17 Z" />
<path fill="#051217" stroke="#051217" stroke-width="0.09375" opacity="1.00" d=" M 502.51 194.73 C 508.96 194.67 515.40 194.69 521.85 194.72 C 521.47 203.75 520.28 212.70 519.50 221.70 C 517.60 221.85 515.70 222.02 513.81 222.18 C 513.76 214.88 514.37 207.60 514.55 200.30 C 512.99 200.34 511.45 200.42 509.91 200.55 C 509.40 203.29 509.37 206.07 509.13 208.84 C 507.01 208.89 504.89 208.94 502.78 208.99 C 502.67 204.24 502.54 199.48 502.51 194.73 Z" />
<path fill="#051217" stroke="#051217" stroke-width="0.09375" opacity="1.00" d=" M 527.14 194.76 C 528.89 194.72 530.64 194.69 532.40 194.68 C 531.05 211.31 528.22 227.79 527.02 244.43 C 523.58 244.40 520.14 244.33 516.70 244.24 C 516.85 242.32 517.02 240.41 517.19 238.50 C 519.28 238.38 521.38 238.24 523.47 238.08 C 524.08 223.59 526.26 209.23 527.14 194.76 Z" />
<path fill="#051217" stroke="#051217" stroke-width="0.09375" opacity="1.00" d=" M 539.06 196.16 C 544.77 196.47 550.43 197.31 556.03 198.45 C 555.73 203.77 554.87 209.03 554.02 214.28 C 548.34 213.48 542.65 212.76 536.95 212.16 C 537.41 206.80 538.20 201.47 539.06 196.16 M 543.40 202.09 C 543.35 203.80 543.33 205.50 543.33 207.21 C 545.01 207.67 546.69 208.15 548.39 208.63 C 549.00 206.49 549.64 204.36 550.26 202.22 C 547.97 202.12 545.68 202.05 543.40 202.09 Z" />
<path fill="#051217" stroke="#051217" stroke-width="0.09375" opacity="1.00" d=" M 387.79 198.46 C 389.52 198.03 391.26 197.59 392.99 197.12 C 392.81 198.55 392.64 199.99 392.48 201.42 C 390.95 200.38 389.38 199.40 387.79 198.46 Z" />
<path fill="#051217" stroke="#051217" stroke-width="0.09375" opacity="1.00" d=" M 260.19 198.44 C 261.62 197.29 263.40 199.72 261.86 200.73 C 260.42 201.90 258.64 199.44 260.19 198.44 Z" />
<path fill="#051217" stroke="#051217" stroke-width="0.09375" opacity="1.00" d=" M 636.19 198.94 C 644.89 210.18 652.55 222.44 657.12 235.97 C 655.30 236.33 653.47 236.69 651.65 237.02 C 647.58 227.88 642.43 219.27 637.16 210.79 C 635.56 208.04 632.82 206.30 630.25 204.58 C 632.26 202.74 634.23 200.84 636.19 198.94 Z" />
<path fill="#051217" stroke="#051217" stroke-width="0.09375" opacity="1.00" d=" M 706.91 208.09 C 711.46 204.48 716.16 201.05 721.20 198.14 C 724.57 203.21 727.69 208.43 730.47 213.85 C 728.83 214.98 727.19 216.11 725.55 217.24 C 723.28 213.64 721.00 210.05 718.76 206.43 C 715.78 208.40 712.87 210.45 709.93 212.45 C 708.90 211.00 707.90 209.55 706.91 208.09 Z" />
<path fill="#051217" stroke="#051217" stroke-width="0.09375" opacity="1.00" d=" M 346.95 200.08 C 348.16 200.65 349.38 201.23 350.60 201.81 C 348.42 205.75 346.84 210.21 343.57 213.42 C 342.15 214.92 340.57 212.53 341.33 211.16 C 342.77 207.26 345.06 203.76 346.95 200.08 Z" />
<path fill="#051217" stroke="#051217" stroke-width="0.09375" opacity="1.00" d=" M 596.26 214.30 C 601.83 208.87 608.32 204.54 614.70 200.12 C 619.73 206.87 624.72 213.65 629.32 220.70 C 625.49 222.67 621.88 225.04 617.97 226.83 C 616.02 225.17 614.89 222.80 613.43 220.75 C 615.11 219.60 616.81 218.47 618.49 217.32 C 616.51 214.83 614.55 212.34 612.63 209.81 C 608.47 212.84 604.47 216.08 600.46 219.29 C 599.05 217.63 597.65 215.96 596.26 214.30 Z" />
<path fill="#051217" stroke="#051217" stroke-width="0.09375" opacity="1.00" d=" M 429.66 201.58 C 431.84 200.25 433.74 202.70 435.48 203.71 C 432.11 206.16 428.59 208.42 424.78 210.11 C 424.72 206.57 426.30 203.08 429.66 201.58 Z" />
<path fill="#051217" stroke="#051217" stroke-width="0.09375" opacity="1.00" d=" M 313.13 202.19 C 316.14 203.21 319.14 204.26 322.13 205.33 C 321.08 208.27 319.91 211.16 318.72 214.04 C 316.09 212.79 312.63 212.32 310.82 209.97 C 311.38 207.32 312.33 204.77 313.13 202.19 M 313.24 209.03 C 314.85 209.55 316.46 210.08 318.07 210.63 C 317.40 208.70 316.73 206.78 316.09 204.84 C 315.14 206.24 314.18 207.63 313.24 209.03 Z" />
<path fill="#051217" stroke="#051217" stroke-width="0.09375" opacity="1.00" d=" M 193.71 203.68 C 194.25 203.61 195.33 203.47 195.87 203.40 C 196.65 204.78 197.41 206.16 198.16 207.56 C 196.35 207.67 194.53 207.79 192.72 207.90 C 193.05 206.49 193.38 205.09 193.71 203.68 Z" />
<path fill="#051217" stroke="#051217" stroke-width="0.09375" opacity="1.00" d=" M 566.10 205.15 C 571.20 206.77 576.24 208.85 580.40 212.31 C 578.32 213.77 576.03 214.87 573.67 215.79 C 572.49 217.70 571.81 220.07 570.09 221.56 C 568.79 221.22 567.52 220.74 566.26 220.31 C 566.91 217.65 567.60 215.02 568.25 212.37 C 566.78 212.05 565.32 211.74 563.86 211.43 C 564.60 209.33 565.35 207.24 566.10 205.15 Z" />
<path fill="#051217" stroke="#051217" stroke-width="0.09375" opacity="1.00" d=" M 241.42 206.22 C 241.64 206.22 242.09 206.22 242.31 206.22 C 243.15 220.97 250.58 234.76 261.20 244.81 C 272.48 255.91 286.58 264.05 301.85 268.22 C 328.85 277.21 357.87 275.18 385.59 271.28 C 412.86 267.14 439.97 262.05 467.15 257.42 C 490.16 253.08 513.57 250.32 537.02 251.24 C 553.32 251.63 570.24 253.96 584.41 262.60 C 599.70 271.52 609.22 289.38 608.07 307.05 C 607.26 321.89 599.36 335.21 589.45 345.86 C 599.05 355.68 608.62 365.58 616.79 376.65 C 617.33 375.06 617.86 373.48 618.41 371.90 C 620.46 372.41 622.52 372.92 624.58 373.42 C 623.09 376.23 621.07 378.84 620.19 381.93 C 622.15 387.29 625.45 392.05 627.68 397.30 C 631.18 405.00 633.08 413.29 635.78 421.27 C 640.76 423.91 646.32 425.43 651.23 428.30 C 649.01 433.66 646.52 438.90 644.02 444.14 C 641.93 443.65 639.85 443.18 637.77 442.70 C 637.45 448.54 636.24 454.28 635.52 460.07 C 635.04 461.87 636.60 463.15 637.66 464.36 C 641.06 467.80 645.00 470.64 648.76 473.66 C 642.42 482.87 635.46 491.64 627.99 499.97 C 626.39 498.34 624.81 496.71 623.25 495.07 C 627.88 488.96 632.80 483.07 637.19 476.80 C 636.23 474.57 634.03 473.17 632.09 471.87 C 626.91 477.80 622.89 484.78 617.09 490.14 C 614.21 488.68 611.38 486.97 609.16 484.62 C 621.48 468.01 622.93 445.91 618.84 426.24 C 612.25 396.38 593.55 369.93 569.20 351.78 C 554.71 341.04 537.35 332.99 519.01 333.09 C 501.26 332.55 483.87 338.07 468.27 346.20 C 441.28 360.19 417.80 380.02 396.31 401.31 C 389.82 407.69 383.36 414.13 377.68 421.26 C 380.14 422.34 382.60 423.41 385.06 424.51 C 396.51 412.09 408.82 400.34 422.73 390.69 C 427.08 387.73 431.48 384.78 436.31 382.63 C 422.15 397.67 407.73 412.50 394.69 428.55 C 412.68 437.02 430.45 446.04 447.24 456.72 C 462.06 465.80 476.41 475.95 488.35 488.66 C 492.88 493.47 495.84 499.44 498.68 505.33 C 510.70 491.52 523.16 477.98 537.37 466.36 C 547.49 458.08 558.40 450.59 570.42 445.33 C 578.67 441.79 587.85 439.81 596.82 441.16 C 603.40 442.21 609.86 447.13 610.71 454.06 C 611.99 463.58 607.21 472.47 602.51 480.37 C 590.74 494.54 577.59 507.54 564.62 520.62 C 526.00 558.68 486.94 596.28 447.79 633.79 C 432.97 647.32 419.09 662.16 402.14 673.11 C 393.94 678.46 384.77 681.98 375.81 685.78 C 374.44 692.11 375.46 698.92 375.28 705.44 C 387.23 694.85 400.25 685.59 413.03 676.06 C 429.09 664.03 443.97 650.52 458.59 636.80 C 463.60 642.66 470.00 647.48 473.35 654.61 C 469.38 658.30 465.30 661.88 461.03 665.22 C 460.35 663.85 459.61 662.52 459.13 661.09 C 460.64 658.38 462.98 656.28 464.76 653.77 C 463.68 651.76 462.03 650.16 460.53 648.49 C 442.50 669.11 422.39 687.75 403.63 707.68 C 403.17 708.40 401.61 709.47 402.69 710.35 C 417.50 726.42 433.94 740.93 448.61 757.13 C 434.52 757.11 420.37 757.90 406.33 756.63 C 395.02 745.94 386.30 732.80 375.37 721.73 C 375.08 733.56 375.46 745.40 374.92 757.23 C 370.00 757.23 365.09 757.30 360.18 757.29 C 360.02 735.10 359.97 712.91 360.23 690.72 C 358.64 690.68 357.05 690.66 355.46 690.64 C 355.63 706.09 355.71 721.55 355.66 737.00 C 355.59 743.68 355.95 750.39 355.18 757.04 C 351.37 756.93 347.55 756.78 343.74 756.67 C 343.99 734.68 344.08 712.69 343.98 690.70 C 342.30 690.73 340.62 690.78 338.95 690.84 C 339.72 698.45 340.92 706.83 336.69 713.71 C 333.51 719.41 327.51 722.55 321.76 725.10 C 326.42 728.52 331.22 731.76 336.03 734.99 C 337.10 735.84 338.68 736.56 338.57 738.20 C 339.10 744.62 338.65 751.07 338.76 757.50 C 336.88 757.44 334.99 757.51 333.12 757.27 C 331.71 756.59 330.89 755.17 329.90 754.03 C 323.21 745.08 316.34 736.27 309.51 727.44 C 306.97 724.46 306.83 720.40 306.38 716.72 C 310.65 714.42 315.64 712.50 318.20 708.10 C 321.01 703.55 320.36 697.20 316.68 693.32 C 313.79 690.25 309.84 688.55 306.06 686.87 C 290.86 680.52 276.09 672.96 262.72 663.29 C 259.81 661.30 256.77 658.92 253.06 658.99 C 240.45 658.81 227.83 658.85 215.22 659.03 C 215.24 666.61 215.19 674.19 215.19 681.77 C 229.61 681.92 244.04 681.62 258.46 681.99 C 258.47 690.32 258.51 698.65 258.52 706.99 C 244.10 707.51 229.67 707.28 215.24 707.22 C 215.19 715.14 215.19 723.06 215.18 730.98 C 231.78 731.23 248.37 730.86 264.97 730.97 C 264.99 739.73 264.85 748.48 264.85 757.24 C 238.50 757.28 212.15 757.37 185.80 757.27 C 186.05 713.70 186.10 670.13 185.69 626.57 C 195.87 626.38 206.05 626.48 216.23 626.50 C 203.56 614.49 190.53 602.18 182.69 586.30 C 165.90 556.17 168.42 517.04 187.65 488.62 C 197.79 472.80 210.46 458.84 222.57 444.54 C 241.83 422.54 261.30 400.64 282.83 380.81 C 300.31 363.98 319.45 348.78 340.32 336.33 C 379.17 312.99 424.55 299.71 470.03 301.33 C 499.65 302.25 528.94 310.24 555.27 323.76 C 558.83 325.50 562.12 327.83 565.88 329.15 C 573.07 325.01 578.70 318.13 581.23 310.21 C 583.81 302.01 581.98 292.81 577.24 285.75 C 572.96 279.63 566.75 274.97 559.88 272.13 C 549.83 267.86 538.79 266.81 527.99 266.62 C 502.87 266.01 477.99 270.22 453.23 273.97 C 427.54 277.97 402.00 283.11 376.10 285.57 C 355.52 287.42 334.37 288.03 314.27 282.53 C 291.70 276.72 269.58 265.71 254.74 247.27 C 251.39 243.13 248.58 238.58 246.05 233.91 C 241.83 225.35 241.25 215.60 241.42 206.22 M 419.13 322.25 C 394.79 327.66 371.36 337.11 350.07 350.08 C 328.67 362.76 308.85 378.05 291.07 395.44 C 307.01 397.41 322.69 401.14 337.98 406.02 C 347.85 409.00 357.29 413.25 367.02 416.59 C 369.56 414.97 371.19 412.36 373.19 410.18 C 395.84 384.17 420.15 358.91 449.66 340.65 C 466.17 330.23 484.70 322.43 504.27 320.54 C 476.16 315.64 447.02 316.16 419.13 322.25 M 276.97 410.01 C 258.96 427.71 242.41 446.82 226.13 466.10 C 214.58 479.83 202.94 493.92 195.52 510.41 C 187.68 527.63 187.60 547.76 193.56 565.56 C 199.96 582.09 212.29 595.51 225.76 606.67 C 236.33 589.57 247.79 573.01 260.11 557.12 C 261.19 555.52 262.74 553.99 262.83 551.97 C 262.93 547.96 262.21 543.94 262.82 539.96 C 264.29 529.52 270.46 520.66 276.09 512.05 C 283.47 500.91 290.83 489.69 299.60 479.57 C 305.73 472.51 313.64 466.11 323.24 465.02 C 325.71 464.40 328.84 464.84 330.57 462.60 C 333.11 459.76 335.15 456.52 337.50 453.53 C 344.24 444.43 351.78 435.98 359.01 427.28 C 336.67 418.02 313.23 410.72 289.09 408.33 C 285.10 408.58 279.93 406.44 276.97 410.01 M 637.47 428.52 C 637.59 431.02 637.76 433.52 638.01 436.02 C 640.72 435.31 642.34 433.07 643.72 430.81 C 641.65 430.01 639.56 429.25 637.47 428.52 M 369.19 431.13 C 359.15 442.29 349.91 454.14 341.19 466.36 C 343.64 467.38 345.91 469.23 348.58 469.55 C 358.14 457.86 367.47 445.97 377.16 434.37 C 374.51 433.27 371.84 432.22 369.19 431.13 M 358.33 474.29 C 355.86 477.09 358.42 480.52 359.22 483.46 C 361.96 492.04 357.84 500.96 352.81 507.82 C 340.44 524.06 327.90 540.17 315.15 556.12 C 308.32 564.54 298.01 570.29 287.02 570.30 C 273.13 587.47 260.25 605.65 250.69 625.63 C 259.65 632.44 269.36 638.19 278.94 644.07 C 296.20 654.18 315.68 661.91 335.99 661.37 C 345.44 661.61 354.95 660.73 364.08 658.19 C 382.38 653.29 398.83 642.50 411.42 628.43 C 423.16 615.30 433.23 600.80 443.66 586.64 C 458.27 566.57 472.74 546.41 487.29 526.30 C 488.98 523.86 491.39 521.20 490.40 517.99 C 487.42 505.41 478.16 495.57 468.43 487.61 C 443.68 467.44 415.09 452.83 386.84 438.28 C 376.53 449.56 367.27 461.88 358.33 474.29 M 321.97 475.96 C 312.04 478.45 303.91 485.96 299.45 495.03 C 303.81 498.19 308.06 501.50 312.05 505.13 C 310.93 502.63 309.75 500.16 308.81 497.59 C 312.85 498.06 313.83 502.17 315.33 505.26 C 315.54 503.29 315.74 501.33 316.01 499.39 C 317.25 501.15 318.46 502.95 319.57 504.80 C 321.89 505.23 324.23 505.62 326.57 505.96 C 332.03 500.20 338.88 495.45 346.81 493.99 C 347.05 488.95 345.60 483.70 341.84 480.16 C 336.66 475.18 328.71 474.40 321.97 475.96 M 328.55 510.53 C 317.83 523.51 308.49 537.78 301.73 553.22 C 311.55 544.43 319.17 533.59 327.33 523.33 C 333.30 515.47 339.94 508.09 345.23 499.73 C 338.90 501.87 332.79 505.24 328.55 510.53 M 229.85 626.57 C 232.41 626.61 234.98 626.63 237.55 626.62 C 240.77 620.23 244.02 613.83 247.70 607.68 C 255.80 593.75 266.16 581.31 275.08 567.93 C 273.35 565.80 271.20 564.07 269.18 562.25 C 254.09 582.33 238.24 602.59 229.85 626.57 Z" />
<path fill="#051217" stroke="#051217" stroke-width="0.09375" opacity="1.00" d=" M 356.86 207.02 C 357.76 205.95 359.17 206.64 360.33 206.66 C 359.42 211.93 356.46 217.44 350.66 218.34 C 352.15 214.31 353.93 210.23 356.86 207.02 Z" />
<path fill="#051217" stroke="#051217" stroke-width="0.09375" opacity="1.00" d=" M 409.66 206.70 C 411.23 205.75 412.78 207.20 414.14 207.88 C 416.78 209.71 419.59 211.91 420.69 215.03 C 420.02 220.30 415.31 224.65 410.10 225.26 C 406.27 223.01 403.54 219.40 400.51 216.25 C 403.29 212.86 405.68 208.82 409.66 206.70 M 407.80 218.26 C 409.96 218.50 412.11 218.74 414.28 218.96 C 414.48 216.02 414.39 212.23 410.95 211.23 C 408.10 212.41 408.27 215.72 407.80 218.26 Z" />
<path fill="#051217" stroke="#051217" stroke-width="0.09375" opacity="1.00" d=" M 462.53 209.69 C 464.46 209.12 466.40 208.54 468.34 207.98 C 468.88 210.70 469.44 213.42 469.98 216.14 C 472.68 215.16 475.38 214.20 478.07 213.20 C 479.31 217.37 480.62 221.52 481.85 225.69 C 476.50 227.38 471.05 228.78 465.48 229.54 C 465.91 228.09 465.22 225.69 467.03 225.03 C 468.80 224.17 470.64 223.49 472.43 222.69 C 470.17 222.21 467.90 221.78 465.64 221.36 C 464.71 217.44 463.63 213.56 462.53 209.69 Z" />
<path fill="#051217" stroke="#051217" stroke-width="0.09375" opacity="1.00" d=" M 488.52 211.17 C 490.66 210.43 492.81 209.68 494.97 208.95 C 495.46 211.74 495.94 214.53 496.41 217.33 C 500.76 216.99 505.11 216.52 509.47 216.26 C 509.40 217.85 509.33 219.43 509.27 221.02 C 503.25 221.91 497.28 223.14 491.28 224.09 C 490.60 219.73 489.55 215.45 488.52 211.17 Z" />
<path fill="#051217" stroke="#051217" stroke-width="0.09375" opacity="1.00" d=" M 431.12 214.37 C 433.50 213.30 435.79 212.06 438.25 211.18 C 440.27 210.09 440.90 213.24 440.73 214.64 C 436.89 218.93 431.92 222.03 426.86 224.67 C 428.25 229.34 430.33 233.76 432.56 238.08 C 430.65 238.65 428.75 239.24 426.81 239.67 C 425.31 237.09 424.63 234.16 423.72 231.35 C 421.78 230.85 419.83 230.36 417.90 229.83 C 421.54 225.60 426.22 222.50 431.14 219.95 C 431.11 218.08 431.10 216.22 431.12 214.37 Z" />
<path fill="#051217" stroke="#051217" stroke-width="0.09375" opacity="1.00" d=" M 248.67 212.92 C 250.21 212.67 251.90 211.97 253.30 213.05 C 253.24 214.22 252.75 215.16 251.82 215.88 C 250.61 215.07 249.65 213.97 248.67 212.92 Z" />
<path fill="#051217" stroke="#051217" stroke-width="0.09375" opacity="1.00" d=" M 266.17 213.54 C 267.59 212.37 269.38 214.82 267.84 215.82 C 266.39 216.99 264.60 214.54 266.17 213.54 Z" />
<path fill="#051217" stroke="#051217" stroke-width="0.09375" opacity="1.00" d=" M 305.97 212.83 C 309.06 214.01 311.64 216.17 313.01 219.22 C 309.88 218.10 307.37 215.85 305.97 212.83 Z" />
<path fill="#051217" stroke="#051217" stroke-width="0.09375" opacity="1.00" d=" M 360.22 218.42 C 360.83 215.95 361.80 212.62 364.96 212.67 C 368.42 212.77 367.92 216.70 368.52 219.13 C 367.21 218.11 365.94 217.05 364.68 215.98 C 363.20 216.81 361.72 217.65 360.22 218.42 Z" />
<path fill="#051217" stroke="#051217" stroke-width="0.09375" opacity="1.00" d=" M 659.59 218.99 C 662.11 216.80 664.89 214.94 667.72 213.17 C 670.09 218.03 672.47 222.89 674.23 228.00 C 672.34 228.20 670.32 229.36 668.48 228.65 C 667.11 226.18 666.22 223.48 665.17 220.87 C 663.30 220.25 661.44 219.64 659.59 218.99 Z" />
<path fill="#051217" stroke="#051217" stroke-width="0.09375" opacity="1.00" d=" M 288.81 213.93 C 291.47 214.61 294.16 215.32 296.70 216.40 C 297.08 217.78 296.03 219.10 295.77 220.43 C 293.24 218.50 290.94 216.29 288.81 213.93 Z" />
<path fill="#051217" stroke="#051217" stroke-width="0.09375" opacity="1.00" d=" M 376.31 215.29 C 377.72 216.15 379.13 217.01 380.54 217.89 C 377.71 222.00 374.89 226.12 371.54 229.84 C 370.16 228.89 368.80 227.93 367.45 226.96 C 370.47 223.12 373.43 219.24 376.31 215.29 Z" />
<path fill="#051217" stroke="#051217" stroke-width="0.09375" opacity="1.00" d=" M 324.28 215.86 C 328.27 217.03 332.21 218.37 336.10 219.85 C 334.05 224.20 332.52 229.38 327.81 231.60 C 328.29 228.15 329.17 224.78 329.98 221.40 C 329.18 221.11 327.59 220.54 326.79 220.26 C 325.04 223.70 323.05 227.32 319.23 228.83 C 320.19 224.25 322.32 220.06 324.28 215.86 Z" />
<path fill="#051217" stroke="#051217" stroke-width="0.09375" opacity="1.00" d=" M 438.81 223.54 C 443.86 220.88 449.23 218.94 454.63 217.14 C 456.55 221.43 458.24 225.84 459.19 230.46 C 453.84 232.28 448.47 234.05 443.06 235.70 C 442.96 234.16 442.86 232.62 442.78 231.08 C 446.12 229.58 449.35 227.78 452.09 225.31 C 448.12 225.74 444.23 226.85 440.23 226.93 C 439.05 226.25 439.29 224.64 438.81 223.54 Z" />
<path fill="#051217" stroke="#051217" stroke-width="0.09375" opacity="1.00" d=" M 534.33 216.91 C 539.93 217.41 545.42 218.59 550.91 219.73 C 550.90 220.99 550.89 222.25 550.89 223.51 C 548.49 223.86 545.72 223.28 543.60 224.59 C 542.06 230.36 542.12 236.47 540.15 242.13 C 539.71 243.17 539.35 245.06 537.79 244.65 C 535.24 244.57 532.72 244.18 530.20 243.93 C 534.77 238.84 537.12 232.01 536.89 225.20 C 535.64 222.55 534.21 219.94 534.33 216.91 Z" />
<path fill="#051217" stroke="#051217" stroke-width="0.09375" opacity="1.00" d=" M 583.32 216.32 C 586.84 218.46 590.14 220.96 593.13 223.80 C 591.85 225.19 590.58 226.59 589.31 227.99 C 586.69 225.36 584.03 222.78 581.30 220.27 C 581.97 218.95 582.64 217.64 583.32 216.32 Z" />
<path fill="#051217" stroke="#051217" stroke-width="0.09375" opacity="1.00" d=" M 690.42 220.50 C 692.49 218.83 694.79 217.49 697.14 216.26 C 699.50 220.99 701.55 225.87 703.28 230.87 C 701.83 231.62 700.40 232.39 698.96 233.15 C 696.97 228.40 694.16 224.05 690.42 220.50 Z" />
<path fill="#051217" stroke="#051217" stroke-width="0.09375" opacity="1.00" d=" M 256.26 219.99 C 257.27 220.28 258.30 220.59 259.32 220.89 C 259.18 221.64 258.89 223.14 258.75 223.89 C 257.79 223.63 256.84 223.36 255.89 223.09 C 255.98 222.32 256.16 220.76 256.26 219.99 Z" />
<path fill="#051217" stroke="#051217" stroke-width="0.09375" opacity="1.00" d=" M 276.41 220.97 C 277.85 220.87 279.29 220.79 280.74 220.74 C 279.48 222.70 278.11 224.59 276.59 226.36 C 276.51 224.56 276.47 222.77 276.41 220.97 Z" />
<path fill="#051217" stroke="#051217" stroke-width="0.09375" opacity="1.00" d=" M 306.10 225.14 C 306.30 223.47 307.99 221.14 309.82 221.84 C 312.10 224.24 310.19 227.48 309.37 230.07 C 308.21 228.53 305.33 227.45 306.10 225.14 Z" />
<path fill="#051217" stroke="#051217" stroke-width="0.09375" opacity="1.00" d=" M 557.99 221.50 C 560.06 222.21 562.13 222.94 564.20 223.66 C 562.84 228.22 561.16 232.68 559.71 237.21 C 555.54 236.07 551.38 234.92 547.25 233.70 C 547.42 232.21 547.59 230.72 547.77 229.24 C 550.46 229.57 553.15 229.94 555.84 230.30 C 556.51 227.36 557.25 224.43 557.99 221.50 Z" />
<path fill="#051217" stroke="#051217" stroke-width="0.09375" opacity="1.00" d=" M 342.62 223.48 C 343.60 222.12 345.36 222.96 346.62 223.31 C 349.89 224.52 352.73 226.60 355.74 228.33 C 353.76 231.46 352.11 234.91 349.33 237.43 C 348.27 238.65 346.69 237.91 345.46 237.51 C 342.42 236.39 339.66 234.67 336.80 233.20 C 338.35 229.76 339.92 226.19 342.62 223.48 M 343.97 226.63 C 343.58 228.97 343.23 231.32 343.02 233.68 C 344.47 233.63 345.94 233.68 347.38 233.39 C 348.14 232.15 348.69 230.76 348.86 229.31 C 347.47 228.03 345.65 227.40 343.97 226.63 Z" />
<path fill="#051217" stroke="#051217" stroke-width="0.09375" opacity="1.00" d=" M 375.65 235.86 C 377.71 230.51 381.86 226.48 385.89 222.59 C 390.40 225.92 394.62 229.63 398.51 233.67 C 394.67 237.49 391.25 241.81 386.87 245.04 C 385.40 245.05 383.95 244.96 382.50 244.77 C 384.45 240.18 387.86 236.49 390.91 232.63 C 389.46 231.35 388.01 230.08 386.58 228.79 C 384.25 231.71 382.18 234.83 379.67 237.61 C 378.18 237.49 376.97 236.43 375.65 235.86 Z" />
<path fill="#051217" stroke="#051217" stroke-width="0.09375" opacity="1.00" d=" M 290.95 226.03 C 292.28 225.16 293.64 224.32 295.01 223.51 C 295.97 225.80 296.90 228.11 297.68 230.47 C 295.35 229.11 293.13 227.59 290.95 226.03 Z" />
<path fill="#051217" stroke="#051217" stroke-width="0.09375" opacity="1.00" d=" M 595.97 232.14 C 598.33 228.91 601.60 226.54 604.71 224.10 C 607.83 227.57 611.42 230.77 613.50 235.03 C 611.30 239.01 606.86 240.72 603.17 242.96 C 600.59 239.49 597.50 236.25 595.97 232.14 M 602.00 231.64 C 602.59 233.65 603.29 235.63 604.10 237.58 C 606.41 236.29 607.12 233.89 607.55 231.45 C 605.69 231.48 603.84 231.54 602.00 231.64 Z" />
<path fill="#051217" stroke="#051217" stroke-width="0.09375" opacity="1.00" d=" M 264.08 226.14 C 265.96 225.58 266.72 228.69 264.87 229.16 C 263.03 229.70 262.19 226.55 264.08 226.14 Z" />
<path fill="#051217" stroke="#051217" stroke-width="0.09375" opacity="1.00" d=" M 224.01 227.19 C 225.58 227.90 227.15 228.61 228.73 229.34 C 228.71 230.58 228.69 231.82 228.67 233.06 C 226.76 233.43 224.84 233.73 222.91 234.00 C 223.26 231.72 223.62 229.46 224.01 227.19 Z" />
<path fill="#051217" stroke="#051217" stroke-width="0.09375" opacity="1.00" d=" M 251.96 226.85 C 252.62 226.99 253.96 227.29 254.62 227.44 C 256.45 228.31 255.57 230.66 255.86 232.24 C 253.68 231.16 252.16 229.34 251.96 226.85 Z" />
<path fill="#051217" stroke="#051217" stroke-width="0.09375" opacity="1.00" d=" M 401.86 231.54 C 404.04 229.90 406.04 227.56 408.85 227.13 C 411.93 229.48 413.63 233.13 415.86 236.22 C 410.86 239.34 405.52 242.31 399.50 242.60 C 400.63 238.71 404.21 236.75 407.31 234.63 C 405.49 233.59 403.67 232.56 401.86 231.54 Z" />
<path fill="#051217" stroke="#051217" stroke-width="0.09375" opacity="1.00" d=" M 498.67 229.26 C 505.36 228.17 512.06 227.05 518.83 226.63 C 519.36 230.85 515.17 231.51 512.08 232.33 C 511.94 236.76 511.95 241.19 511.88 245.63 C 509.49 245.66 507.09 245.72 504.71 245.79 C 504.78 241.93 504.93 238.06 505.03 234.20 C 503.19 234.01 500.95 235.01 499.40 233.82 C 499.05 232.31 498.87 230.78 498.67 229.26 Z" />
<path fill="#051217" stroke="#051217" stroke-width="0.09375" opacity="1.00" d=" M 618.75 236.02 C 623.77 233.31 628.51 229.95 633.91 228.04 C 635.82 228.84 636.16 231.55 637.26 233.23 C 633.86 234.66 630.49 236.14 627.12 237.63 C 627.39 238.59 627.93 240.52 628.20 241.48 C 630.67 239.70 633.10 237.87 635.60 236.13 C 636.81 238.44 638.06 240.73 639.30 243.03 C 634.97 245.02 630.59 246.87 626.20 248.69 C 623.88 244.37 621.34 240.18 618.75 236.02 Z" />
<path fill="#051217" stroke="#051217" stroke-width="0.09375" opacity="1.00" d=" M 473.35 233.52 C 479.67 231.81 486.05 230.32 492.55 229.48 C 493.02 234.36 491.36 239.04 488.42 242.88 C 491.28 242.37 494.16 241.96 497.04 241.55 C 497.00 243.32 496.96 245.10 496.92 246.88 C 491.13 247.73 485.33 248.46 479.50 248.90 C 479.70 245.30 480.14 241.73 480.74 238.18 C 477.83 237.45 474.89 236.29 473.35 233.52 Z" />
<path fill="#051217" stroke="#051217" stroke-width="0.09375" opacity="1.00" d=" M 577.44 229.90 C 578.96 231.18 580.78 232.25 581.83 233.99 C 579.46 239.75 575.48 244.69 571.69 249.56 C 568.12 247.79 565.28 244.87 561.93 242.74 C 562.24 241.50 562.56 240.26 562.89 239.02 C 565.16 239.29 567.44 239.53 569.72 239.74 C 572.53 236.65 575.00 233.28 577.44 229.90 Z" />
<path fill="#051217" stroke="#051217" stroke-width="0.09375" opacity="1.00" d=" M 269.99 232.73 C 270.75 232.72 272.27 232.70 273.03 232.69 C 273.01 233.50 272.97 235.11 272.96 235.91 C 272.24 235.90 270.82 235.88 270.10 235.87 C 270.08 235.09 270.02 233.52 269.99 232.73 Z" />
<path fill="#051217" stroke="#051217" stroke-width="0.09375" opacity="1.00" d=" M 350.17 244.14 C 354.44 239.64 358.47 234.15 364.90 232.76 C 361.93 240.40 355.75 246.26 348.86 250.45 C 348.94 248.30 348.40 245.78 350.17 244.14 Z" />
<path fill="#051217" stroke="#051217" stroke-width="0.09375" opacity="1.00" d=" M 257.62 234.13 C 258.97 232.58 261.24 235.00 259.71 236.30 C 258.36 237.72 256.20 235.42 257.62 234.13 Z" />
<path fill="#051217" stroke="#051217" stroke-width="0.09375" opacity="1.00" d=" M 308.15 246.09 C 309.51 241.53 310.58 236.30 314.99 233.64 C 314.76 237.58 314.14 241.65 312.13 245.13 C 310.83 245.56 309.48 245.79 308.15 246.09 Z" />
<path fill="#051217" stroke="#051217" stroke-width="0.09375" opacity="1.00" d=" M 452.85 237.72 C 457.21 235.83 461.94 235.05 466.53 233.90 C 467.23 237.41 467.72 240.98 468.62 244.45 C 470.28 244.93 472.01 245.11 473.73 245.38 C 473.63 246.70 473.55 248.03 473.47 249.36 C 467.61 250.65 461.76 251.97 455.93 253.38 C 455.64 251.76 455.36 250.16 455.10 248.55 C 457.52 247.79 459.94 246.99 462.35 246.16 C 462.32 244.47 462.27 242.78 462.21 241.09 C 458.68 241.53 455.15 241.98 451.61 242.32 C 452.02 240.79 451.95 239.06 452.85 237.72 Z" />
<path fill="#051217" stroke="#051217" stroke-width="0.09375" opacity="1.00" d=" M 721.56 235.65 C 724.23 235.19 727.04 233.33 729.71 234.02 C 731.97 239.44 733.54 245.13 735.12 250.78 C 733.44 251.32 731.76 251.86 730.09 252.39 C 729.24 249.78 728.46 247.15 727.36 244.64 C 725.91 241.34 723.19 238.84 721.56 235.65 Z" />
<path fill="#051217" stroke="#051217" stroke-width="0.09375" opacity="1.00" d=" M 280.07 234.89 C 282.22 235.83 284.37 236.79 286.53 237.74 C 286.36 240.56 286.25 243.39 285.90 246.20 C 282.75 246.22 284.85 241.91 284.28 239.91 C 282.91 239.47 281.54 239.04 280.17 238.62 C 280.13 237.38 280.10 236.13 280.07 234.89 Z" />
<path fill="#051217" stroke="#051217" stroke-width="0.09375" opacity="1.00" d=" M 677.37 238.71 C 679.62 237.56 681.87 236.39 684.14 235.23 C 685.93 240.45 687.43 245.76 688.88 251.08 C 687.02 251.51 685.18 251.98 683.33 252.41 C 682.09 247.55 680.00 242.97 677.37 238.71 Z" />
<path fill="#051217" stroke="#051217" stroke-width="0.09375" opacity="1.00" d=" M 263.09 239.90 C 262.59 238.45 264.80 238.53 265.68 238.25 C 266.57 239.27 266.79 240.64 267.17 241.91 C 265.62 241.53 262.56 242.49 263.09 239.90 Z" />
<path fill="#051217" stroke="#051217" stroke-width="0.09375" opacity="1.00" d=" M 363.57 244.25 C 366.70 242.23 369.84 240.20 372.97 238.15 C 373.57 239.34 374.18 240.53 374.79 241.73 C 372.56 244.18 370.49 246.79 368.00 249.00 C 366.42 247.52 365.01 245.86 363.57 244.25 Z" />
<path fill="#051217" stroke="#051217" stroke-width="0.09375" opacity="1.00" d=" M 580.42 253.84 C 583.55 248.65 586.92 243.56 590.99 239.04 C 592.80 240.73 594.93 242.41 595.84 244.78 C 592.58 248.48 589.29 252.22 585.60 255.50 C 583.84 255.96 582.12 254.28 580.42 253.84 Z" />
<path fill="#051217" stroke="#051217" stroke-width="0.09375" opacity="1.00" d=" M 295.34 240.03 C 297.35 239.90 299.35 239.80 301.36 239.71 C 300.46 242.76 299.52 245.79 298.63 248.84 C 297.54 248.97 296.45 249.09 295.37 249.22 C 295.42 246.16 295.42 243.09 295.34 240.03 Z" />
<path fill="#051217" stroke="#051217" stroke-width="0.09375" opacity="1.00" d=" M 323.29 239.97 C 324.57 240.73 325.83 241.51 327.11 242.29 C 325.02 245.62 322.98 248.99 321.17 252.49 C 319.76 252.22 318.35 251.96 316.95 251.70 C 318.96 247.74 321.08 243.82 323.29 239.97 Z" />
<path fill="#051217" stroke="#051217" stroke-width="0.09375" opacity="1.00" d=" M 428.32 245.08 C 433.46 243.30 438.59 241.47 443.75 239.74 C 445.24 244.80 446.80 249.85 448.17 254.96 C 443.03 256.31 437.86 257.57 432.68 258.73 C 431.31 254.15 429.92 249.58 428.32 245.08 M 435.43 246.81 C 435.83 248.95 436.24 251.10 436.63 253.25 C 438.30 252.82 439.96 252.38 441.64 251.95 C 441.20 250.06 440.73 248.19 440.29 246.31 C 438.67 246.47 437.05 246.64 435.43 246.81 Z" />
<path fill="#051217" stroke="#051217" stroke-width="0.09375" opacity="1.00" d=" M 546.70 239.23 C 550.24 239.77 553.77 240.38 557.30 241.02 C 557.33 242.66 557.33 244.31 557.29 245.97 C 553.17 245.52 549.06 244.96 544.96 244.43 C 545.54 242.70 546.11 240.96 546.70 239.23 Z" />
<path fill="#051217" stroke="#051217" stroke-width="0.09375" opacity="1.00" d=" M 409.41 244.66 C 412.67 242.99 416.10 241.67 419.64 240.71 C 421.90 247.05 424.49 253.33 425.55 260.03 C 423.83 259.88 422.10 259.83 420.41 259.50 C 418.49 256.07 418.20 252.00 416.48 248.48 C 414.38 246.78 411.76 245.92 409.41 244.66 Z" />
<path fill="#051217" stroke="#051217" stroke-width="0.09375" opacity="1.00" d=" M 661.05 241.55 C 663.10 241.21 665.16 240.86 667.23 240.52 C 669.19 246.79 671.21 253.04 672.73 259.44 C 670.88 259.66 669.05 259.87 667.21 260.06 C 665.21 253.88 662.97 247.77 661.05 241.55 Z" />
<path fill="#051217" stroke="#051217" stroke-width="0.09375" opacity="1.00" d=" M 270.07 243.58 C 271.72 244.31 273.63 244.78 274.92 246.14 C 275.97 247.64 276.32 249.50 276.87 251.23 C 273.83 249.47 271.47 246.79 270.07 243.58 Z" />
<path fill="#051217" stroke="#051217" stroke-width="0.09375" opacity="1.00" d=" M 595.33 258.01 C 600.36 252.38 606.78 248.27 612.65 243.59 C 618.69 251.06 623.86 259.22 627.79 268.00 C 620.69 270.61 613.63 273.38 607.04 277.12 C 605.10 274.47 603.18 271.80 601.31 269.10 C 603.39 267.40 605.52 265.76 607.67 264.16 C 608.60 265.48 609.53 266.80 610.46 268.13 C 613.11 266.74 615.73 265.30 618.36 263.87 C 616.03 260.18 613.50 256.63 610.87 253.16 C 606.27 256.36 601.67 259.56 596.96 262.59 C 596.38 261.07 595.69 259.59 595.33 258.01 Z" />
<path fill="#051217" stroke="#051217" stroke-width="0.09375" opacity="1.00" d=" M 306.35 246.12 C 307.98 246.70 309.61 247.30 311.25 247.88 C 311.19 248.82 311.07 250.69 311.01 251.62 C 309.22 251.35 307.44 251.06 305.67 250.77 C 305.88 249.22 306.12 247.67 306.35 246.12 Z" />
<path fill="#051217" stroke="#051217" stroke-width="0.09375" opacity="1.00" d=" M 327.36 245.90 C 330.27 245.69 333.20 245.65 336.12 245.68 C 335.74 247.57 335.34 249.46 334.93 251.35 C 331.96 250.22 329.24 248.50 327.36 245.90 Z" />
<path fill="#051217" stroke="#051217" stroke-width="0.09375" opacity="1.00" d=" M 393.25 250.35 C 397.20 248.62 401.12 246.83 405.12 245.24 C 405.63 246.76 406.15 248.28 406.67 249.80 C 404.13 251.28 401.75 253.09 400.20 255.64 C 405.32 255.34 410.30 253.98 415.40 253.48 C 412.41 260.16 404.35 260.76 398.09 262.06 C 395.97 258.39 395.00 254.19 393.25 250.35 Z" />
<path fill="#051217" stroke="#051217" stroke-width="0.09375" opacity="1.00" d=" M 197.30 250.68 C 197.17 248.77 198.88 246.78 200.80 248.09 C 201.18 249.48 201.32 250.90 201.24 252.35 C 199.89 251.87 198.46 251.54 197.30 250.68 Z" />
<path fill="#051217" stroke="#051217" stroke-width="0.09375" opacity="1.00" d=" M 631.99 255.46 C 638.12 252.38 644.65 250.21 651.12 247.95 C 654.59 256.25 658.09 264.60 660.00 273.43 C 652.14 274.96 644.27 276.50 636.33 277.55 C 636.33 275.48 636.31 273.40 636.31 271.33 C 640.91 270.17 645.59 269.29 650.09 267.78 L 650.54 267.01 C 649.68 263.43 648.30 260.01 647.03 256.56 C 641.96 257.86 640.23 263.81 634.91 264.80 C 633.66 261.77 632.53 258.69 631.99 255.46 Z" />
<path fill="#051217" stroke="#051217" stroke-width="0.09375" opacity="1.00" d=" M 697.98 252.16 C 702.91 250.74 707.77 248.93 712.87 248.22 C 715.41 255.06 716.65 262.34 717.85 269.52 C 715.96 269.69 714.07 269.86 712.19 270.00 C 711.12 265.36 710.32 260.62 708.73 256.12 C 705.68 255.22 702.22 257.39 699.02 257.80 C 698.66 255.92 698.32 254.04 697.98 252.16 Z" />
<path fill="#051217" stroke="#051217" stroke-width="0.09375" opacity="1.00" d=" M 373.57 252.64 C 377.58 251.44 381.56 250.12 385.60 248.99 C 386.24 251.76 386.65 254.61 387.77 257.24 C 389.66 259.01 392.06 260.11 394.19 261.58 C 388.40 263.87 382.30 265.62 376.03 265.64 C 376.97 262.63 379.41 260.81 382.18 259.63 C 382.18 258.56 382.17 257.50 382.17 256.44 C 379.56 256.37 376.95 256.30 374.35 256.23 C 374.15 255.33 373.76 253.54 373.57 252.64 Z" />
<path fill="#051217" stroke="#051217" stroke-width="0.09375" opacity="1.00" d=" M 281.48 249.86 C 283.40 251.05 285.14 252.52 286.40 254.42 C 284.63 254.87 282.86 255.30 281.09 255.72 C 281.20 253.76 281.33 251.81 281.48 249.86 Z" />
<path fill="#051217" stroke="#051217" stroke-width="0.09375" opacity="1.00" d=" M 356.23 254.25 C 359.23 253.30 362.35 252.78 365.44 252.21 C 366.42 255.27 367.03 258.43 367.50 261.60 C 369.23 262.10 370.95 262.61 372.66 263.17 C 372.66 263.76 372.67 264.95 372.67 265.54 C 367.27 266.98 361.76 268.00 356.18 268.38 C 356.49 265.32 359.15 263.68 361.54 262.28 C 361.59 261.02 361.64 259.76 361.70 258.51 C 359.28 258.35 356.86 258.19 354.46 258.00 C 354.91 256.77 354.48 254.53 356.23 254.25 Z" />
<path fill="#051217" stroke="#051217" stroke-width="0.09375" opacity="1.00" d=" M 292.21 254.73 C 294.10 254.82 295.98 254.92 297.87 255.05 C 297.34 257.33 296.81 259.60 296.32 261.89 C 294.89 261.26 293.45 260.64 292.02 260.04 C 292.08 258.26 292.15 256.49 292.21 254.73 Z" />
<path fill="#051217" stroke="#051217" stroke-width="0.09375" opacity="1.00" d=" M 337.13 256.94 C 340.68 255.81 344.31 254.99 347.97 254.30 C 349.24 259.16 350.69 263.96 352.16 268.76 C 347.81 269.02 343.46 269.25 339.11 269.30 C 339.14 268.56 339.19 267.09 339.22 266.36 C 341.57 265.54 345.21 264.73 344.73 261.46 C 342.36 259.68 339.61 258.53 337.13 256.94 Z" />
<path fill="#051217" stroke="#051217" stroke-width="0.09375" opacity="1.00" d=" M 243.33 256.00 C 244.95 255.47 245.50 256.02 244.96 257.66 C 243.34 258.17 242.79 257.62 243.33 256.00 Z" />
<path fill="#051217" stroke="#051217" stroke-width="0.09375" opacity="1.00" d=" M 322.27 256.98 C 325.53 256.35 328.79 255.73 332.08 255.23 C 332.75 259.96 333.41 264.70 333.98 269.45 C 330.07 269.35 326.18 269.13 322.28 268.91 C 322.39 264.93 322.34 260.95 322.27 256.98 M 323.80 260.15 C 323.58 262.00 323.37 263.86 323.17 265.72 C 324.87 265.74 326.57 265.77 328.27 265.79 C 328.04 263.89 327.84 262.01 327.67 260.11 C 326.37 260.13 325.08 260.14 323.80 260.15 Z" />
<path fill="#051217" stroke="#051217" stroke-width="0.09375" opacity="1.00" d=" M 308.09 257.46 C 310.48 257.58 312.87 257.74 315.26 257.94 C 314.18 259.54 313.09 261.13 312.00 262.73 C 314.20 263.64 316.38 264.64 318.25 266.16 C 314.68 266.58 311.09 266.30 307.53 266.00 C 307.69 263.15 307.91 260.30 308.09 257.46 Z" />
<path fill="#051217" stroke="#051217" stroke-width="0.09375" opacity="1.00" d=" M 297.58 263.34 C 298.96 262.23 300.36 261.15 301.78 260.09 C 302.88 261.33 303.98 262.59 305.06 263.86 C 302.56 263.70 300.07 263.53 297.58 263.34 Z" />
<path fill="#051217" stroke="#051217" stroke-width="0.09375" opacity="1.00" d=" M 673.83 266.22 C 678.63 264.91 683.48 263.74 688.31 262.52 C 689.64 267.91 690.74 273.37 691.52 278.87 C 685.58 279.81 679.65 280.87 673.71 281.88 C 673.72 279.96 673.75 278.05 673.79 276.14 C 677.27 275.45 680.74 274.70 684.22 274.00 C 684.24 272.64 684.26 271.28 684.29 269.92 C 681.18 270.32 678.06 270.73 674.95 271.09 C 674.56 269.47 674.19 267.84 673.83 266.22 Z" />
<path fill="#051217" stroke="#051217" stroke-width="0.09375" opacity="1.00" d=" M 257.46 272.16 C 257.44 270.52 257.41 268.49 259.51 268.29 C 260.24 269.23 260.74 270.34 261.29 271.40 C 260.33 271.59 258.42 271.97 257.46 272.16 Z" />
<path fill="#051217" stroke="#051217" stroke-width="0.09375" opacity="1.00" d=" M 729.08 269.52 C 731.77 269.03 734.46 268.48 737.15 267.94 C 738.30 274.04 739.23 280.18 739.83 286.37 C 738.02 286.35 736.22 286.34 734.43 286.32 C 733.97 280.39 732.94 274.27 729.08 269.52 Z" />
<path fill="#051217" stroke="#051217" stroke-width="0.09375" opacity="1.00" d=" M 225.19 274.61 C 226.65 275.22 228.84 275.59 228.71 277.64 C 227.64 278.28 226.49 278.76 225.36 279.27 C 225.27 277.71 225.21 276.16 225.19 274.61 Z" />
<path fill="#051217" stroke="#051217" stroke-width="0.09375" opacity="1.00" d=" M 609.34 280.67 C 611.23 279.67 613.11 278.67 615.01 277.69 C 615.99 280.86 616.93 284.05 617.94 287.22 C 622.54 286.51 627.14 285.84 631.76 285.27 C 632.46 292.43 633.62 299.54 634.05 306.74 C 628.03 307.04 622.01 307.45 615.98 307.55 C 616.01 305.49 616.06 303.45 616.10 301.40 C 619.39 301.27 622.70 301.18 625.97 300.72 C 626.63 298.22 625.73 295.61 625.57 293.08 C 621.90 293.90 618.25 294.79 614.62 295.75 C 612.97 290.68 611.26 285.63 609.34 280.67 Z" />
<path fill="#051217" stroke="#051217" stroke-width="0.09375" opacity="1.00" d=" M 705.23 279.25 C 708.77 279.08 712.32 278.90 715.86 278.72 C 715.82 281.11 715.79 283.50 715.77 285.89 C 717.67 286.23 719.57 286.57 721.48 286.93 C 720.97 288.47 720.45 290.00 719.88 291.51 C 715.43 291.93 710.97 292.37 706.50 292.44 C 707.63 289.67 708.84 286.94 710.00 284.18 C 708.36 284.04 706.74 283.89 705.13 283.76 C 705.15 282.25 705.19 280.75 705.23 279.25 Z" />
<path fill="#051217" stroke="#051217" stroke-width="0.09375" opacity="1.00" d=" M 636.88 283.95 C 638.62 283.12 640.36 282.29 642.11 281.47 C 644.33 290.38 645.30 299.54 645.77 308.69 C 643.91 308.66 642.05 308.65 640.20 308.65 C 639.39 300.37 637.81 292.20 636.88 283.95 Z" />
<path fill="#051217" stroke="#051217" stroke-width="0.09375" opacity="1.00" d=" M 652.58 284.96 C 656.82 284.27 661.03 283.46 665.29 282.90 C 665.63 290.09 666.44 297.25 666.67 304.45 C 664.50 304.45 662.34 304.46 660.18 304.46 C 659.91 299.67 659.59 294.87 659.56 290.07 C 657.31 289.83 655.06 289.62 652.82 289.42 C 652.68 287.94 652.60 286.44 652.58 284.96 Z" />
<path fill="#051217" stroke="#051217" stroke-width="0.09375" opacity="1.00" d=" M 254.07 289.11 C 255.73 289.87 257.39 290.64 259.05 291.42 C 258.38 293.06 257.68 294.70 256.97 296.34 C 255.51 295.98 254.04 295.67 252.62 295.19 C 252.14 293.06 253.52 291.09 254.07 289.11 Z" />
<path fill="#051217" stroke="#051217" stroke-width="0.09375" opacity="1.00" d=" M 303.46 293.83 C 302.71 291.84 305.02 290.90 306.63 291.12 C 307.21 292.28 307.64 293.51 308.09 294.73 C 306.60 295.08 303.33 296.58 303.46 293.83 Z" />
<path fill="#051217" stroke="#051217" stroke-width="0.09375" opacity="1.00" d=" M 679.25 292.46 C 685.10 292.24 690.94 291.84 696.80 291.65 C 696.61 302.27 696.20 312.88 695.54 323.48 C 693.12 323.42 690.70 323.36 688.29 323.30 C 688.48 315.09 689.35 306.90 688.95 298.69 C 685.83 300.34 682.69 301.95 679.42 303.26 C 679.30 299.66 679.25 296.06 679.25 292.46 Z" />
<path fill="#051217" stroke="#051217" stroke-width="0.09375" opacity="1.00" d=" M 754.13 292.63 C 755.25 292.44 756.39 292.23 757.55 292.19 C 757.82 292.91 758.35 294.34 758.62 295.06 C 757.48 295.34 756.34 295.62 755.20 295.90 C 754.83 294.81 754.47 293.72 754.13 292.63 Z" />
<path fill="#051217" stroke="#051217" stroke-width="0.09375" opacity="1.00" d=" M 727.17 301.31 C 733.30 301.27 739.44 301.26 745.58 301.41 C 745.56 309.32 745.63 317.22 745.43 325.12 C 739.35 325.06 733.28 324.68 727.21 324.62 C 727.21 316.85 727.19 309.08 727.17 301.31 M 733.43 307.52 C 733.40 311.11 733.35 314.70 733.31 318.30 C 735.32 318.30 737.34 318.30 739.37 318.30 C 739.32 314.76 739.29 311.22 739.30 307.69 C 737.34 307.63 735.38 307.57 733.43 307.52 Z" />
<path fill="#051217" stroke="#051217" stroke-width="0.09375" opacity="1.00" d=" M 709.79 306.67 C 711.76 306.31 713.74 305.97 715.73 305.65 C 715.54 312.59 715.85 319.57 715.17 326.48 C 713.31 326.55 711.45 326.46 709.60 326.41 C 709.49 319.83 709.66 313.25 709.79 306.67 Z" />
<path fill="#051217" stroke="#051217" stroke-width="0.09375" opacity="1.00" d=" M 654.53 310.75 C 661.86 310.50 669.20 310.68 676.53 311.00 C 675.88 321.67 675.18 332.34 673.88 342.95 C 666.85 342.55 659.87 341.73 652.85 341.32 C 653.23 338.20 653.78 335.12 654.38 332.05 C 658.69 332.77 662.89 334.08 666.93 335.76 C 667.75 329.70 668.38 323.61 668.54 317.49 C 665.99 317.43 663.44 317.38 660.89 317.35 C 660.49 319.12 660.08 320.90 659.68 322.67 C 657.89 323.06 656.10 323.46 654.33 323.86 C 654.32 319.49 654.43 315.12 654.53 310.75 Z" />
<path fill="#051217" stroke="#051217" stroke-width="0.09375" opacity="1.00" d=" M 613.23 312.08 C 618.83 312.16 624.43 312.26 630.03 312.33 C 629.52 321.06 628.67 329.81 626.86 338.37 C 620.95 338.17 615.11 337.07 609.21 336.67 C 609.26 334.78 609.31 332.90 609.35 331.03 C 613.36 331.04 617.37 331.24 621.38 331.37 C 621.97 327.02 622.52 322.67 622.91 318.30 C 621.44 318.30 619.98 318.31 618.53 318.32 C 618.36 320.67 618.17 323.02 617.98 325.37 C 616.01 325.06 614.05 324.74 612.09 324.44 C 612.36 320.31 612.77 316.19 613.23 312.08 Z" />
<path fill="#051217" stroke="#051217" stroke-width="0.09375" opacity="1.00" d=" M 634.43 315.26 C 639.30 315.34 644.17 315.44 649.05 315.43 C 649.12 324.07 648.41 332.68 647.95 341.29 C 646.15 341.35 644.36 341.40 642.58 341.45 C 642.66 334.74 643.11 328.03 643.09 321.31 C 641.80 321.33 640.52 321.36 639.25 321.38 C 638.72 327.57 638.01 333.74 637.49 339.93 C 635.77 339.95 634.05 339.96 632.35 339.99 C 632.72 331.72 633.82 323.51 634.43 315.26 Z" />
<path fill="#051217" stroke="#051217" stroke-width="0.09375" opacity="1.00" d=" M 754.73 320.92 C 756.53 321.09 758.33 321.25 760.14 321.42 C 759.84 323.41 759.54 325.40 759.25 327.40 C 757.40 327.13 755.56 326.85 753.72 326.58 C 754.05 324.69 754.40 322.80 754.73 320.92 Z" />
<path fill="#051217" stroke="#051217" stroke-width="0.09375" opacity="1.00" d=" M 768.69 328.34 C 769.74 327.58 770.63 326.63 771.44 325.62 C 771.66 326.52 772.09 328.31 772.30 329.20 C 771.40 328.99 769.59 328.55 768.69 328.34 Z" />
<path fill="#051217" stroke="#051217" stroke-width="0.09375" opacity="1.00" d=" M 700.19 332.08 C 705.75 332.28 711.30 332.73 716.84 333.38 C 716.08 343.31 713.92 353.04 712.45 362.87 C 706.66 361.91 700.90 360.79 695.15 359.67 C 695.55 357.44 695.97 355.21 696.38 352.99 C 699.79 353.26 703.19 354.15 706.64 353.82 C 707.92 349.06 708.50 344.14 709.34 339.29 C 708.49 339.23 706.77 339.09 705.91 339.02 C 705.55 340.78 705.20 342.54 704.84 344.30 C 702.92 343.78 701.00 343.25 699.10 342.72 C 699.31 339.16 699.72 335.62 700.19 332.08 Z" />
<path fill="#051217" stroke="#051217" stroke-width="0.09375" opacity="1.00" d=" M 727.02 335.68 C 729.10 335.77 731.19 335.89 733.28 336.03 C 731.86 346.08 730.46 356.15 728.30 366.09 C 726.33 365.98 724.36 365.89 722.40 365.83 C 723.58 355.72 726.06 345.82 727.02 335.68 Z" />
<path fill="#051217" stroke="#051217" stroke-width="0.09375" opacity="1.00" d=" M 683.76 338.04 C 686.08 338.30 688.39 338.57 690.72 338.87 C 689.64 345.44 688.22 351.95 687.00 358.50 C 684.86 358.45 682.73 358.40 680.60 358.33 C 681.52 351.54 682.73 344.81 683.76 338.04 Z" />
<path fill="#051217" stroke="#051217" stroke-width="0.09375" opacity="1.00" d=" M 602.86 339.61 C 607.09 340.19 611.31 340.80 615.51 341.62 C 613.97 347.61 612.13 353.51 609.78 359.24 C 607.49 357.48 605.21 355.71 602.90 353.99 C 605.23 351.70 606.99 348.94 608.11 345.88 C 605.96 345.63 603.80 345.40 601.66 345.15 C 602.04 343.30 602.45 341.45 602.86 339.61 Z" />
<path fill="#051217" stroke="#051217" stroke-width="0.09375" opacity="1.00" d=" M 742.56 340.02 C 745.72 340.12 748.88 340.41 752.05 340.66 C 751.37 350.49 748.80 360.06 746.37 369.58 C 744.33 369.15 742.30 368.71 740.28 368.28 C 742.21 360.91 744.04 353.51 745.59 346.05 C 744.43 345.60 743.27 345.15 742.13 344.70 C 742.26 343.14 742.41 341.58 742.56 340.02 Z" />
<path fill="#051217" stroke="#051217" stroke-width="0.09375" opacity="1.00" d=" M 621.41 343.20 C 629.98 344.06 638.50 345.30 647.08 346.00 C 645.32 355.19 643.13 364.29 641.01 373.40 C 631.82 371.86 622.92 369.12 613.97 366.61 C 615.78 358.61 618.61 350.89 621.41 343.20 M 620.22 363.25 C 625.27 364.06 630.33 364.76 635.39 365.49 C 635.37 363.99 635.35 362.50 635.34 361.02 C 633.64 360.86 631.95 360.69 630.26 360.54 C 630.23 358.73 630.18 356.92 630.14 355.12 C 632.96 355.06 635.86 355.11 638.54 354.03 C 638.61 353.40 638.74 352.12 638.80 351.48 C 634.22 350.72 629.64 349.88 624.99 349.76 C 622.90 354.06 621.69 358.72 620.22 363.25 Z" />
<path fill="#051217" stroke="#051217" stroke-width="0.09375" opacity="1.00" d=" M 651.62 346.38 C 659.33 347.09 667.00 348.17 674.72 348.75 C 673.13 358.43 671.70 368.16 669.30 377.69 C 662.05 377.74 655.30 374.92 648.32 373.42 C 648.31 371.88 648.30 370.35 648.30 368.83 C 653.52 368.69 658.72 369.24 663.91 369.80 C 663.93 368.32 663.96 366.85 664.00 365.38 C 662.32 365.24 660.65 365.09 659.00 364.95 C 658.87 362.79 658.75 360.63 658.66 358.48 C 661.08 358.49 663.51 358.53 665.94 358.57 C 665.91 357.27 665.90 355.99 665.88 354.70 C 662.68 354.63 659.25 353.11 656.19 354.07 C 655.19 356.93 654.68 359.93 654.08 362.89 C 652.51 362.87 650.94 362.87 649.39 362.87 C 649.85 357.34 650.64 351.84 651.62 346.38 Z" />
<path fill="#051217" stroke="#051217" stroke-width="0.09375" opacity="1.00" d=" M 769.09 352.08 C 770.49 351.63 770.96 352.11 770.48 353.51 C 769.07 353.95 768.60 353.48 769.09 352.08 Z" />
<path fill="#051217" stroke="#051217" stroke-width="0.09375" opacity="1.00" d=" M 679.97 362.72 C 682.04 363.53 684.10 364.38 686.16 365.24 C 684.99 370.64 683.20 375.87 681.52 381.12 C 679.56 380.75 677.61 380.35 675.67 379.95 C 676.88 374.15 678.35 368.42 679.97 362.72 Z" />
<path fill="#051217" stroke="#051217" stroke-width="0.09375" opacity="1.00" d=" M 714.63 369.13 C 719.72 370.28 724.76 371.62 729.81 372.92 C 727.65 381.73 724.97 390.40 722.32 399.07 C 720.41 398.38 718.50 397.68 716.62 396.97 C 718.03 390.06 721.20 383.58 721.88 376.51 C 718.74 377.26 717.40 380.13 716.48 382.92 C 714.67 382.44 712.86 381.95 711.05 381.48 C 712.01 377.30 713.32 373.21 714.63 369.13 Z" />
<path fill="#051217" stroke="#051217" stroke-width="0.09375" opacity="1.00" d=" M 760.11 369.26 C 761.60 369.30 763.11 369.33 764.62 369.37 C 764.63 370.85 764.66 372.33 764.71 373.82 C 763.12 373.88 761.53 373.93 759.96 373.99 C 760.00 372.41 760.05 370.83 760.11 369.26 Z" />
<path fill="#051217" stroke="#051217" stroke-width="0.09375" opacity="1.00" d=" M 693.01 369.53 C 696.79 370.76 700.45 372.35 704.06 374.02 C 702.26 378.31 700.53 382.62 698.93 386.98 C 697.26 386.17 695.59 385.36 693.93 384.56 C 694.68 381.76 695.90 379.06 696.16 376.16 C 695.26 373.88 694.03 371.75 693.01 369.53 Z" />
<path fill="#051217" stroke="#051217" stroke-width="0.09375" opacity="1.00" d=" M 630.34 375.09 C 632.07 375.43 633.79 375.78 635.53 376.14 C 634.20 381.01 632.54 385.82 630.04 390.24 C 628.30 389.26 626.58 388.26 624.85 387.29 C 626.44 383.12 628.38 379.10 630.34 375.09 Z" />
<path fill="#051217" stroke="#051217" stroke-width="0.09375" opacity="1.00" d=" M 738.75 374.17 C 742.48 374.63 746.18 375.31 749.86 376.10 C 748.09 384.05 745.87 391.88 743.98 399.80 C 745.49 400.46 747.02 401.14 748.54 401.82 C 748.28 403.55 748.02 405.29 747.76 407.04 C 743.16 405.64 738.47 404.49 734.01 402.67 C 733.57 401.36 733.75 399.97 733.68 398.62 C 735.32 398.41 736.98 398.20 738.63 397.97 C 739.93 391.97 741.39 386.02 742.76 380.04 C 740.97 379.80 739.20 379.56 737.43 379.32 C 737.85 377.60 738.29 375.88 738.75 374.17 Z" />
<path fill="#051217" stroke="#051217" stroke-width="0.09375" opacity="1.00" d=" M 642.40 376.98 C 647.64 377.54 652.71 379.08 657.74 380.61 C 655.82 386.51 654.08 392.48 651.48 398.12 C 646.24 396.98 641.20 395.16 636.20 393.27 C 637.92 387.72 639.42 382.03 642.40 376.98 M 643.03 390.32 C 645.11 390.23 647.20 390.12 649.29 390.00 C 648.98 387.86 648.65 385.73 648.28 383.61 C 644.48 383.63 643.85 387.37 643.03 390.32 Z" />
<path fill="#051217" stroke="#051217" stroke-width="0.09375" opacity="1.00" d=" M 662.76 382.19 C 666.62 382.46 670.43 383.17 674.21 383.99 C 671.92 390.74 668.92 397.22 666.39 403.88 C 664.50 403.47 662.62 403.03 660.76 402.61 C 662.26 397.70 664.19 392.94 666.16 388.21 C 664.97 386.23 663.82 384.23 662.76 382.19 Z" />
<path fill="#051217" stroke="#051217" stroke-width="0.09375" opacity="1.00" d=" M 701.75 387.20 C 703.07 387.19 704.39 387.18 705.72 387.18 C 705.61 388.75 705.52 390.32 705.45 391.91 C 704.21 391.57 702.97 391.23 701.74 390.92 C 701.73 389.67 701.74 388.43 701.75 387.20 Z" />
<path fill="#051217" stroke="#051217" stroke-width="0.09375" opacity="1.00" d=" M 683.26 387.71 C 688.82 389.41 694.99 390.47 699.72 393.95 C 697.74 400.22 695.04 406.23 692.83 412.42 C 687.18 410.64 681.56 408.78 675.99 406.78 C 678.36 400.40 680.89 394.09 683.26 387.71 M 684.26 403.19 C 686.13 403.46 688.02 403.73 689.91 403.97 C 690.36 401.27 690.79 398.56 691.25 395.86 C 689.67 395.75 688.10 395.65 686.54 395.55 C 685.56 398.03 684.84 400.59 684.26 403.19 Z" />
<path fill="#051217" stroke="#051217" stroke-width="0.09375" opacity="1.00" d=" M 760.14 389.13 C 761.56 389.28 763.00 389.43 764.44 389.59 C 764.31 390.53 764.05 392.40 763.92 393.34 C 762.63 393.33 761.35 393.32 760.07 393.31 C 760.09 391.91 760.11 390.52 760.14 389.13 Z" />
<path fill="#051217" stroke="#051217" stroke-width="0.09375" opacity="1.00" d=" M 630.55 396.54 C 634.45 397.37 638.16 398.84 641.84 400.36 C 640.93 402.16 640.01 403.95 639.09 405.75 C 635.94 402.98 632.84 400.09 630.55 396.54 Z" />
<path fill="#051217" stroke="#051217" stroke-width="0.09375" opacity="1.00" d=" M 705.94 401.93 C 711.21 403.81 716.41 405.88 721.57 408.06 C 719.22 414.13 716.54 420.05 713.74 425.92 C 708.53 423.61 703.32 421.32 698.03 419.20 C 700.57 413.40 703.25 407.67 705.94 401.93 M 709.07 409.22 C 708.09 411.49 707.12 413.75 706.19 416.04 C 707.91 416.68 709.63 417.34 711.36 417.98 C 711.99 415.54 712.65 413.12 713.21 410.67 C 711.82 410.18 710.44 409.70 709.07 409.22 Z" />
<path fill="#051217" stroke="#051217" stroke-width="0.09375" opacity="1.00" d=" M 647.23 403.04 C 649.32 404.17 651.58 405.11 653.30 406.80 C 650.63 411.37 648.18 416.12 644.87 420.27 C 642.86 420.03 640.91 419.44 638.97 418.93 C 641.51 413.53 644.34 408.26 647.23 403.04 Z" />
<path fill="#051217" stroke="#051217" stroke-width="0.09375" opacity="1.00" d=" M 653.43 424.94 C 655.57 418.70 658.48 412.76 661.80 407.07 C 666.88 408.66 671.83 410.61 676.68 412.78 C 674.64 418.90 672.02 424.80 669.27 430.63 C 663.86 429.11 658.57 427.21 653.43 424.94 M 664.14 414.16 C 663.03 416.74 661.96 419.34 660.96 421.96 C 662.61 422.37 664.27 422.79 665.93 423.23 C 666.84 420.69 667.82 418.18 668.79 415.66 C 667.23 415.16 665.68 414.65 664.14 414.16 Z" />
<path fill="#051217" stroke="#051217" stroke-width="0.09375" opacity="1.00" d=" M 760.77 409.83 C 761.93 410.24 763.08 410.70 764.22 411.21 C 764.38 413.38 762.52 414.76 760.93 412.92 C 760.89 412.15 760.81 410.61 760.77 409.83 Z" />
<path fill="#051217" stroke="#051217" stroke-width="0.09375" opacity="1.00" d=" M 728.33 413.08 C 733.51 415.15 738.43 417.81 743.34 420.46 C 741.32 426.50 738.40 432.19 735.06 437.60 C 730.26 434.83 725.23 432.46 720.53 429.52 L 720.31 428.95 C 722.62 423.49 725.80 418.44 728.33 413.08 M 728.71 426.88 C 730.08 427.94 731.48 428.98 732.90 430.01 C 733.80 427.50 734.71 425.00 735.69 422.52 C 733.97 422.04 732.25 421.60 730.53 421.21 C 729.88 423.08 729.27 424.98 728.71 426.88 Z" />
<path fill="#051217" stroke="#051217" stroke-width="0.09375" opacity="1.00" d=" M 682.08 417.52 C 684.74 418.47 687.37 419.50 690.04 420.48 C 686.99 427.77 682.91 434.56 679.64 441.74 C 677.82 440.73 676.00 439.72 674.18 438.73 C 675.79 435.49 677.52 432.32 679.12 429.07 C 680.96 425.48 681.23 421.39 682.08 417.52 Z" />
<path fill="#051217" stroke="#051217" stroke-width="0.09375" opacity="1.00" d=" M 752.20 423.13 C 753.52 422.96 754.85 422.80 756.20 422.65 C 756.20 424.10 756.21 425.55 756.23 427.01 C 754.46 426.97 752.70 426.93 750.94 426.90 C 751.36 425.64 751.78 424.39 752.20 423.13 Z" />
<path fill="#051217" stroke="#051217" stroke-width="0.09375" opacity="1.00" d=" M 693.55 429.07 C 698.41 430.80 703.12 432.91 707.76 435.17 C 705.28 441.32 702.05 447.11 698.69 452.81 C 694.14 449.86 689.02 447.69 684.98 444.04 C 687.51 438.87 690.87 434.16 693.55 429.07 M 695.11 436.56 C 694.48 438.94 693.82 441.30 693.18 443.68 C 694.57 443.79 695.98 443.90 697.40 444.00 C 698.22 441.85 699.10 439.73 699.96 437.60 C 698.33 437.25 696.72 436.90 695.11 436.56 Z" />
<path fill="#051217" stroke="#051217" stroke-width="0.09375" opacity="1.00" d=" M 703.44 457.17 C 707.22 450.47 711.38 444.00 714.92 437.17 C 716.77 437.89 718.62 438.63 720.48 439.37 C 717.16 446.61 712.65 453.19 708.50 459.96 C 706.80 459.04 705.11 458.10 703.44 457.17 Z" />
<path fill="#051217" stroke="#051217" stroke-width="0.09375" opacity="1.00" d=" M 654.97 443.98 C 655.90 441.95 656.64 439.32 659.07 438.62 C 661.15 438.77 663.15 439.45 665.17 439.96 C 661.07 448.53 655.66 456.37 651.21 464.75 C 649.25 463.46 647.30 462.17 645.35 460.88 C 648.36 455.13 652.59 450.06 654.97 443.98 Z" />
<path fill="#051217" stroke="#051217" stroke-width="0.09375" opacity="1.00" d=" M 665.89 457.59 C 667.74 453.30 670.02 449.20 672.78 445.43 C 674.44 445.79 676.10 446.21 677.75 446.68 C 675.52 450.80 673.21 454.89 670.75 458.88 C 669.12 458.45 667.50 458.02 665.89 457.59 Z" />
<path fill="#051217" stroke="#051217" stroke-width="0.09375" opacity="1.00" d=" M 726.46 447.71 C 729.30 449.39 732.08 451.18 734.85 452.99 C 731.62 458.81 728.30 464.60 724.57 470.11 C 722.82 469.37 721.09 468.60 719.37 467.85 C 721.18 464.54 723.29 461.42 725.04 458.08 C 726.70 454.89 726.22 451.17 726.46 447.71 Z" />
<path fill="#051217" stroke="#051217" stroke-width="0.09375" opacity="1.00" d=" M 670.17 465.28 C 674.57 460.55 677.20 454.42 681.01 449.21 C 682.89 450.43 684.75 451.70 686.59 453.00 C 682.14 460.66 676.92 467.84 671.86 475.08 C 666.14 472.32 661.10 468.39 655.80 464.93 C 657.10 463.36 658.22 461.57 659.96 460.44 C 663.60 461.49 666.76 463.67 670.17 465.28 Z" />
<path fill="#051217" stroke="#051217" stroke-width="0.09375" opacity="1.00" d=" M 692.44 456.81 C 695.63 457.44 698.59 458.87 701.18 460.84 C 709.25 466.78 717.88 471.94 725.83 478.06 C 725.31 479.19 724.79 480.33 724.28 481.47 C 715.70 475.08 706.75 469.20 698.13 462.86 C 695.86 461.23 693.98 459.13 692.44 456.81 Z" />
<path fill="#051217" stroke="#051217" stroke-width="0.09375" opacity="1.00" d=" M 758.01 461.16 C 759.25 461.80 760.51 462.44 761.76 463.10 C 761.69 464.25 761.63 465.40 761.58 466.56 C 759.94 466.69 758.30 466.82 756.68 466.96 C 757.11 465.02 757.55 463.09 758.01 461.16 Z" />
<path fill="#051217" stroke="#051217" stroke-width="0.09375" opacity="1.00" d=" M 674.64 478.66 C 678.20 472.99 682.05 467.49 685.78 461.93 C 690.73 465.05 696.23 467.60 700.13 472.09 C 697.55 478.19 692.81 482.99 688.99 488.31 C 687.61 487.37 686.24 486.42 684.88 485.49 C 686.83 480.76 689.81 476.57 692.50 472.24 C 691.07 471.50 689.64 470.77 688.22 470.05 C 685.34 473.97 682.29 477.77 679.17 481.51 C 677.66 480.55 676.15 479.60 674.64 478.66 Z" />
<path fill="#051217" stroke="#051217" stroke-width="0.09375" opacity="1.00" d=" M 655.27 471.01 C 658.79 473.52 662.19 476.21 665.51 479.00 C 660.05 486.51 654.40 493.89 648.35 500.94 C 645.42 498.38 642.15 496.09 639.91 492.86 C 640.05 491.38 640.43 489.94 640.75 488.51 C 643.07 488.98 645.45 490.71 647.83 490.11 C 651.01 487.32 653.20 483.63 655.77 480.33 C 654.30 478.99 652.84 477.66 651.40 476.32 C 652.69 474.55 653.98 472.78 655.27 471.01 Z" />
<path fill="#051217" stroke="#051217" stroke-width="0.09375" opacity="1.00" d=" M 706.19 476.10 C 710.18 478.93 714.70 481.34 717.92 485.04 C 714.36 491.00 709.36 496.11 705.00 501.54 C 701.20 498.56 697.48 495.48 693.95 492.20 C 697.88 486.72 702.01 481.39 706.19 476.10 M 701.52 494.21 C 706.61 492.42 709.18 487.40 710.99 482.69 C 706.11 484.67 702.46 488.99 701.52 494.21 Z" />
<path fill="#051217" stroke="#051217" stroke-width="0.09375" opacity="1.00" d=" M 651.03 508.27 C 657.61 500.41 663.95 492.34 671.24 485.11 C 672.52 486.05 673.88 486.96 674.93 488.21 C 674.47 490.06 673.19 491.54 672.07 493.03 C 666.82 499.57 661.12 505.72 655.74 512.14 C 654.16 510.86 652.59 509.56 651.03 508.27 Z" />
<path fill="#051217" stroke="#051217" stroke-width="0.09375" opacity="1.00" d=" M 595.98 502.91 C 598.75 497.96 602.46 493.61 605.99 489.19 C 611.83 490.96 616.88 494.64 621.13 498.94 C 617.04 504.76 612.03 509.87 607.50 515.34 C 606.01 514.14 604.54 512.92 603.08 511.69 C 605.89 506.93 609.76 502.95 612.95 498.47 C 611.43 498.36 609.78 497.47 608.33 498.23 C 605.47 500.98 603.43 504.44 601.04 507.57 C 599.31 506.06 597.51 504.62 595.98 502.91 Z" />
<path fill="#051217" stroke="#051217" stroke-width="0.09375" opacity="1.00" d=" M 671.02 508.31 C 674.34 503.70 677.82 499.20 681.84 495.17 C 686.11 497.96 690.51 500.64 694.25 504.15 C 691.31 509.35 687.01 513.61 683.12 518.09 C 679.05 514.87 674.96 511.67 671.02 508.31 M 678.45 508.11 C 679.95 508.88 681.47 509.64 683.00 510.38 C 684.16 508.04 687.37 503.52 683.05 502.63 C 681.06 504.03 679.83 506.17 678.45 508.11 Z" />
<path fill="#051217" stroke="#051217" stroke-width="0.09375" opacity="1.00" d=" M 635.19 498.60 C 642.95 504.86 650.51 511.50 657.02 519.07 C 655.79 520.82 654.24 522.29 652.78 523.84 C 645.58 517.29 638.32 510.81 631.50 503.86 C 632.73 502.11 633.96 500.35 635.19 498.60 Z" />
<path fill="#051217" stroke="#051217" stroke-width="0.09375" opacity="1.00" d=" M 716.49 499.25 C 718.15 499.42 719.81 499.60 721.49 499.79 C 721.45 501.34 721.43 502.89 721.41 504.45 C 719.73 504.47 718.06 504.50 716.40 504.54 C 716.42 502.77 716.45 501.01 716.49 499.25 Z" />
<path fill="#051217" stroke="#051217" stroke-width="0.09375" opacity="1.00" d=" M 616.35 516.37 C 619.47 513.26 621.95 509.15 625.94 507.15 C 627.72 508.13 629.34 509.41 630.99 510.61 C 625.63 517.30 619.69 523.46 613.92 529.79 C 617.56 533.22 621.38 536.45 625.22 539.66 C 628.95 535.28 633.03 531.11 636.04 526.18 C 634.19 524.22 632.09 522.51 630.14 520.67 C 631.18 518.63 632.29 516.62 633.40 514.62 C 637.99 518.27 642.27 522.28 646.53 526.31 C 640.07 534.69 632.49 542.11 625.67 550.19 C 617.86 544.08 610.05 537.94 602.93 531.04 C 606.97 525.76 611.91 521.29 616.35 516.37 Z" />
<path fill="#051217" stroke="#051217" stroke-width="0.09375" opacity="1.00" d=" M 585.89 510.90 C 586.84 510.16 587.57 508.86 588.87 508.77 C 594.49 512.47 599.50 517.01 604.70 521.28 C 596.59 530.53 587.89 539.24 579.83 548.54 C 574.12 544.24 568.96 539.30 563.95 534.23 C 570.65 525.89 578.38 518.49 585.89 510.90 M 589.59 518.69 C 584.98 523.87 579.63 528.41 575.36 533.87 C 576.20 535.28 577.16 536.65 578.09 538.03 C 583.10 532.73 588.63 527.85 592.76 521.79 C 591.69 520.76 590.63 519.73 589.59 518.69 Z" />
<path fill="#051217" stroke="#051217" stroke-width="0.09375" opacity="1.00" d=" M 652.99 532.56 C 657.09 526.89 661.92 521.83 666.83 516.87 C 670.75 519.40 674.55 522.12 677.93 525.35 C 673.71 531.71 668.26 537.08 663.07 542.63 C 659.58 539.40 656.24 536.02 652.99 532.56 M 659.90 535.54 C 665.08 533.54 668.75 528.79 669.83 523.39 C 664.91 525.76 661.52 530.41 659.90 535.54 Z" />
<path fill="#051217" stroke="#051217" stroke-width="0.09375" opacity="1.00" d=" M 691.73 518.49 C 693.25 518.17 694.78 517.88 696.32 517.64 C 696.42 519.32 696.55 521.01 696.68 522.71 C 694.89 522.69 693.11 522.69 691.33 522.70 C 691.45 521.29 691.59 519.88 691.73 518.49 Z" />
<path fill="#051217" stroke="#051217" stroke-width="0.09375" opacity="1.00" d=" M 619.84 532.63 C 621.70 529.08 624.03 525.79 626.74 522.83 C 627.70 524.26 628.77 525.65 629.55 527.21 C 629.26 529.55 627.61 531.58 625.73 532.90 C 623.81 533.52 621.78 532.73 619.84 532.63 Z" />
<path fill="#051217" stroke="#051217" stroke-width="0.09375" opacity="1.00" d=" M 680.29 531.04 C 681.70 531.05 683.13 531.08 684.56 531.11 C 684.58 532.38 684.62 533.67 684.66 534.96 C 683.20 535.00 681.75 534.99 680.31 534.92 C 680.29 533.62 680.28 532.33 680.29 531.04 Z" />
<path fill="#051217" stroke="#051217" stroke-width="0.09375" opacity="1.00" d=" M 597.48 536.02 C 601.41 539.55 606.39 542.42 609.27 546.83 C 604.50 551.91 599.88 557.19 594.84 562.01 C 590.34 559.52 586.56 555.73 582.95 552.09 C 587.52 546.50 592.70 541.43 597.48 536.02 M 589.02 556.49 C 593.80 553.66 599.41 549.94 599.42 543.70 C 595.09 547.15 591.07 551.25 589.02 556.49 Z" />
<path fill="#051217" stroke="#051217" stroke-width="0.09375" opacity="1.00" d=" M 555.91 542.91 C 557.53 541.25 559.14 539.59 560.75 537.93 C 562.39 539.62 564.06 541.29 565.72 542.98 C 564.01 544.58 562.31 546.17 560.62 547.79 C 559.06 546.15 557.49 544.52 555.91 542.91 Z" />
<path fill="#051217" stroke="#051217" stroke-width="0.09375" opacity="1.00" d=" M 736.35 538.40 C 737.97 537.87 738.53 538.42 738.02 540.06 C 736.39 540.58 735.83 540.03 736.35 538.40 Z" />
<path fill="#051217" stroke="#051217" stroke-width="0.09375" opacity="1.00" d=" M 630.87 554.80 C 634.57 548.73 639.71 543.70 644.95 538.99 C 646.70 540.50 648.22 542.26 649.79 543.97 C 644.98 548.95 640.42 554.23 635.22 558.78 C 633.67 557.55 632.29 556.15 630.87 554.80 Z" />
<path fill="#051217" stroke="#051217" stroke-width="0.09375" opacity="1.00" d=" M 670.76 542.67 C 673.07 541.36 676.77 543.03 676.44 545.93 C 676.20 548.98 672.65 548.68 670.46 549.24 C 670.41 547.05 670.03 544.79 670.76 542.67 Z" />
<path fill="#051217" stroke="#051217" stroke-width="0.09375" opacity="1.00" d=" M 522.46 574.76 C 531.40 565.26 540.90 556.28 550.34 547.29 C 553.06 547.97 554.58 551.33 556.59 553.25 C 548.07 563.24 538.27 572.02 529.31 581.61 C 527.05 579.30 524.76 577.02 522.46 574.76 Z" />
<path fill="#051217" stroke="#051217" stroke-width="0.09375" opacity="1.00" d=" M 552.93 565.81 C 558.52 560.12 564.05 554.36 569.94 548.98 C 575.16 552.26 579.53 556.63 584.05 560.77 C 581.02 563.96 577.95 567.10 574.67 570.03 C 573.45 568.87 570.78 568.29 571.26 566.19 C 572.57 563.66 574.53 561.56 576.24 559.31 C 575.14 558.26 574.04 557.21 572.95 556.18 C 567.89 560.80 563.06 565.69 558.87 571.12 C 556.89 569.34 554.92 567.57 552.93 565.81 Z" />
<path fill="#051217" stroke="#051217" stroke-width="0.09375" opacity="1.00" d=" M 592.21 574.73 C 599.80 565.95 608.06 557.78 616.20 549.52 C 617.95 551.13 619.69 552.75 621.44 554.36 C 613.79 562.80 605.75 570.88 597.81 579.04 C 595.94 577.60 594.08 576.16 592.21 574.73 Z" />
<path fill="#051217" stroke="#051217" stroke-width="0.09375" opacity="1.00" d=" M 691.12 550.67 C 692.39 550.65 693.66 550.64 694.94 550.65 C 695.41 551.78 695.89 552.91 696.38 554.05 C 694.59 554.50 692.82 554.95 691.05 555.42 C 691.07 553.83 691.09 552.24 691.12 550.67 Z" />
<path fill="#051217" stroke="#051217" stroke-width="0.09375" opacity="1.00" d=" M 648.69 554.05 C 650.29 553.94 651.90 553.84 653.51 553.76 C 653.52 555.43 653.50 557.12 653.47 558.81 C 651.80 558.81 650.14 558.82 648.48 558.84 C 648.53 557.24 648.60 555.64 648.69 554.05 Z" />
<path fill="#051217" stroke="#051217" stroke-width="0.09375" opacity="1.00" d=" M 624.67 558.42 C 630.91 561.85 636.27 566.78 641.07 571.98 C 640.12 572.78 639.25 575.56 637.81 574.09 C 632.78 569.55 626.41 565.40 624.67 558.42 Z" />
<path fill="#051217" stroke="#051217" stroke-width="0.09375" opacity="1.00" d=" M 569.56 581.69 C 575.62 575.41 581.59 569.04 587.95 563.06 C 589.18 564.62 591.18 565.86 591.69 567.83 C 586.27 573.98 580.50 579.85 574.85 585.81 C 573.10 584.41 571.33 583.04 569.56 581.69 Z" />
<path fill="#051217" stroke="#051217" stroke-width="0.09375" opacity="1.00" d=" M 653.66 564.24 C 655.00 564.56 656.35 564.89 657.70 565.22 C 657.66 566.41 657.63 567.59 657.61 568.79 C 656.30 568.91 655.00 569.04 653.70 569.17 C 653.67 567.52 653.66 565.88 653.66 564.24 Z" />
<path fill="#051217" stroke="#051217" stroke-width="0.09375" opacity="1.00" d=" M 603.20 582.67 C 608.39 576.78 613.37 570.45 619.92 566.02 C 621.70 567.23 623.31 568.69 624.80 570.26 C 619.63 576.40 613.11 581.43 608.77 588.30 C 606.92 586.42 605.09 584.51 603.20 582.67 Z" />
<path fill="#051217" stroke="#051217" stroke-width="0.09375" opacity="1.00" d=" M 539.23 581.23 C 542.81 577.84 546.07 574.10 549.94 571.03 C 557.98 577.32 565.06 584.76 572.01 592.23 C 570.47 594.21 568.82 596.10 567.06 597.88 C 561.09 593.61 556.59 587.70 550.90 583.13 C 544.75 587.07 540.00 592.84 534.98 598.08 C 532.95 596.05 530.80 594.15 528.97 591.94 C 531.88 587.92 535.76 584.75 539.23 581.23 Z" />
<path fill="#051217" stroke="#051217" stroke-width="0.09375" opacity="1.00" d=" M 498.31 598.30 C 505.14 591.66 511.81 584.85 518.87 578.45 C 520.78 580.56 522.72 582.66 524.64 584.77 C 517.32 592.16 509.07 598.78 502.79 607.12 C 503.08 608.73 504.67 609.70 505.62 610.97 C 511.23 605.50 517.14 600.38 522.99 595.18 C 524.82 596.84 526.65 598.52 528.50 600.19 C 521.59 607.66 513.70 614.10 506.08 620.81 C 501.34 615.56 496.06 610.74 491.99 604.92 C 493.75 602.40 496.14 600.44 498.31 598.30 Z" />
<path fill="#051217" stroke="#051217" stroke-width="0.09375" opacity="1.00" d=" M 589.19 580.00 C 592.14 582.71 595.11 585.41 598.03 588.16 C 593.61 591.74 589.98 596.38 584.90 599.09 C 584.03 599.18 582.27 599.37 581.40 599.46 C 582.11 595.28 585.93 593.29 588.72 590.64 C 588.96 589.27 589.12 587.90 589.22 586.52 C 585.77 588.06 582.46 589.89 578.93 591.24 C 581.71 586.95 585.43 583.42 589.19 580.00 Z" />
<path fill="#051217" stroke="#051217" stroke-width="0.09375" opacity="1.00" d=" M 644.37 580.38 C 644.97 580.34 646.17 580.25 646.77 580.21 C 646.81 580.88 646.87 582.22 646.90 582.89 C 646.24 582.86 644.91 582.80 644.24 582.76 C 644.27 582.17 644.34 580.97 644.37 580.38 Z" />
<path fill="#051217" stroke="#051217" stroke-width="0.09375" opacity="1.00" d=" M 620.25 584.63 C 623.57 584.75 624.76 587.58 625.13 590.46 C 623.13 590.61 621.14 590.77 619.15 590.90 C 619.48 588.80 619.84 586.70 620.25 584.63 Z" />
<path fill="#051217" stroke="#051217" stroke-width="0.09375" opacity="1.00" d=" M 548.24 591.91 C 549.99 593.56 551.77 595.18 553.55 596.81 C 550.13 600.08 546.54 603.17 542.76 606.02 C 542.00 604.05 541.25 602.10 540.52 600.14 C 543.04 597.34 545.62 594.61 548.24 591.91 Z" />
<path fill="#051217" stroke="#051217" stroke-width="0.09375" opacity="1.00" d=" M 542.98 615.07 C 547.01 611.03 550.74 606.66 555.12 603.00 C 560.08 605.72 564.51 609.63 567.11 614.72 C 563.00 619.02 558.46 622.90 554.16 627.02 C 550.13 623.33 546.49 619.25 542.98 615.07 M 553.19 613.17 C 551.17 614.66 552.45 617.40 552.40 619.47 C 555.00 617.66 559.03 616.05 558.89 612.29 C 557.62 609.67 554.50 611.60 553.19 613.17 Z" />
<path fill="#051217" stroke="#051217" stroke-width="0.09375" opacity="1.00" d=" M 515.56 619.16 C 521.39 613.82 527.36 608.63 533.08 603.17 C 534.89 605.01 536.72 606.85 538.54 608.71 C 532.67 614.24 526.71 619.68 520.52 624.85 C 518.87 622.96 517.20 621.07 515.56 619.16 Z" />
<path fill="#051217" stroke="#051217" stroke-width="0.09375" opacity="1.00" d=" M 462.81 632.41 C 471.06 625.19 478.28 616.80 486.92 610.04 C 492.11 614.81 496.84 620.08 501.05 625.74 C 494.78 632.26 487.75 637.98 481.42 644.42 C 480.12 645.69 478.85 647.04 477.28 647.98 C 475.69 646.40 474.27 644.67 472.81 642.99 C 478.14 637.56 483.65 632.33 489.06 627.00 C 491.70 625.08 488.12 623.13 487.06 621.45 C 480.71 627.20 475.05 633.77 468.26 638.98 C 466.29 636.92 464.57 634.64 462.81 632.41 Z" />
<path fill="#051217" stroke="#051217" stroke-width="0.09375" opacity="1.00" d=" M 643.77 634.77 C 661.38 617.49 692.26 617.14 710.73 633.26 C 719.08 640.70 724.16 651.77 723.99 662.99 C 724.23 674.27 719.02 685.23 711.05 693.05 C 696.77 706.81 679.95 717.61 665.39 731.03 C 684.70 731.58 704.04 730.87 723.36 731.26 C 723.42 739.93 723.38 748.60 723.30 757.28 C 695.52 757.25 667.73 757.21 639.95 757.28 C 633.33 757.46 630.07 750.33 630.01 744.63 C 633.83 744.26 637.64 743.82 641.47 743.44 C 641.78 735.63 641.25 727.80 641.78 720.00 C 641.73 717.80 643.65 716.45 645.03 715.05 C 656.96 704.23 669.64 694.28 681.93 683.89 C 686.90 679.54 692.65 675.14 694.41 668.44 C 696.30 661.79 692.84 654.43 686.97 651.03 C 678.41 645.89 666.73 647.89 659.57 654.58 C 656.24 657.67 654.38 661.90 652.14 665.77 C 645.26 662.11 639.18 655.92 638.01 647.94 C 636.90 642.79 640.20 638.10 643.77 634.77 Z" />
<path fill="#051217" stroke="#051217" stroke-width="0.09375" opacity="1.00" d=" M 525.85 634.15 C 530.38 630.24 534.99 626.32 539.96 622.97 C 541.66 624.45 543.16 626.15 544.73 627.78 C 540.54 630.90 536.35 634.01 532.32 637.31 C 531.31 637.85 530.44 639.18 529.18 638.89 C 527.80 637.52 526.69 635.88 525.85 634.15 Z" />
<path fill="#051217" stroke="#051217" stroke-width="0.09375" opacity="1.00" d=" M 509.21 624.03 C 514.26 629.75 519.22 635.57 523.78 641.71 C 515.29 649.31 506.41 656.50 497.23 663.26 C 495.47 664.95 493.55 662.39 491.83 661.81 C 498.72 654.46 507.12 648.67 513.83 641.16 C 512.51 639.00 510.87 637.07 509.32 635.09 C 504.29 640.13 499.16 645.06 493.97 649.95 C 489.51 654.11 485.32 658.60 480.37 662.20 C 478.93 660.56 477.50 658.93 476.08 657.29 C 486.62 645.70 498.46 635.41 509.21 624.03 Z" />
<path fill="#051217" stroke="#051217" stroke-width="0.09375" opacity="1.00" d=" M 604.22 630.22 C 605.55 628.67 606.95 626.65 609.22 626.59 C 614.55 626.09 619.91 626.56 625.25 626.54 C 625.29 655.94 625.16 685.34 625.22 714.74 C 628.66 714.75 632.11 714.76 635.56 714.86 C 635.48 722.75 635.44 730.64 635.55 738.53 C 632.12 738.58 628.71 738.66 625.29 738.75 C 625.31 744.94 625.14 751.12 624.97 757.30 C 616.13 757.19 607.28 757.28 598.44 757.24 C 598.50 751.07 598.40 744.90 598.33 738.73 C 576.81 738.48 555.29 738.62 533.78 738.70 C 534.20 731.08 531.45 722.19 536.68 715.68 C 559.33 687.30 581.85 658.82 604.22 630.22 M 568.10 714.81 C 578.16 714.82 588.23 714.78 598.29 714.83 C 598.30 702.59 598.54 690.33 598.00 678.10 C 587.17 689.61 578.22 702.70 568.10 714.81 Z" />
<path fill="#051217" stroke="#051217" stroke-width="0.09375" opacity="1.00" d=" M 532.90 644.57 C 534.38 642.89 535.84 641.20 537.34 639.54 C 537.97 641.29 538.60 643.05 539.23 644.82 C 537.11 644.73 535.00 644.65 532.90 644.57 Z" />
<path fill="#051217" stroke="#051217" stroke-width="0.09375" opacity="1.00" d=" M 558.22 641.37 C 559.64 640.22 561.42 642.66 559.89 643.68 C 558.44 644.83 556.69 642.37 558.22 641.37 Z" />
<path fill="#051217" stroke="#051217" stroke-width="0.09375" opacity="1.00" d=" M 522.40 662.08 C 523.25 660.61 525.58 662.16 524.46 663.50 C 523.59 665.00 521.34 663.41 522.40 662.08 Z" />
<path fill="#051217" stroke="#051217" stroke-width="0.09375" opacity="1.00" d=" M 446.28 684.26 C 455.38 677.08 464.19 669.53 473.13 662.14 C 474.13 663.43 475.17 664.70 476.06 666.09 C 469.63 673.32 460.34 676.92 452.83 682.81 C 448.61 686.12 444.25 689.44 439.10 691.19 C 441.24 688.62 443.66 686.32 446.28 684.26 Z" />
<path fill="#051217" stroke="#051217" stroke-width="0.09375" opacity="1.00" d=" M 477.01 667.85 C 479.63 669.82 481.79 672.36 483.21 675.32 C 479.71 674.29 477.57 671.36 477.01 667.85 Z" />
<path fill="#051217" stroke="#051217" stroke-width="0.09375" opacity="1.00" d=" M 275.63 682.53 C 283.67 686.32 291.55 690.43 299.32 694.73 C 300.61 695.65 302.66 696.27 302.82 698.12 C 303.38 701.71 303.18 705.37 303.19 709.00 C 302.95 725.09 303.03 741.18 302.79 757.28 C 293.76 757.19 284.73 757.22 275.70 757.29 C 275.46 732.37 275.31 707.45 275.63 682.53 Z" />
<path fill="#051217" stroke="#051217" stroke-width="0.09375" opacity="1.00" d=" M 462.49 703.03 C 481.90 702.88 501.32 702.62 520.74 703.07 C 520.66 711.37 520.63 719.66 520.70 727.96 C 501.32 728.13 481.94 728.00 462.56 728.03 C 462.54 719.69 462.48 711.36 462.49 703.03 Z" />
<path fill="#051217" stroke="#051217" stroke-width="0.09375" opacity="1.00" d=" M 428.37 712.30 C 436.69 712.17 445.01 712.21 453.33 712.28 C 453.25 714.00 453.20 715.74 453.15 717.47 C 444.91 717.58 436.66 717.64 428.42 717.56 C 428.41 715.80 428.39 714.05 428.37 712.30 Z" />
</g>
<g id="#dfe1e1ff">
<path fill="#dfe1e1" stroke="#dfe1e1" stroke-width="0.09375" opacity="1.00" d=" M 246.05 233.91 C 248.58 238.58 251.39 243.13 254.74 247.27 C 269.58 265.71 291.70 276.72 314.27 282.53 C 308.35 282.05 302.20 281.85 296.77 279.18 C 292.24 276.99 287.76 274.71 283.11 272.78 C 276.97 269.02 271.52 264.22 265.19 260.75 C 260.41 258.38 259.12 251.89 253.50 250.78 C 251.50 244.92 246.73 240.24 246.05 233.91 Z" />
<path fill="#dfe1e1" stroke="#dfe1e1" stroke-width="0.09375" opacity="1.00" d=" M 419.13 322.25 C 447.02 316.16 476.16 315.64 504.27 320.54 C 484.70 322.43 466.17 330.23 449.66 340.65 C 420.15 358.91 395.84 384.17 373.19 410.18 C 371.19 412.36 369.56 414.97 367.02 416.59 C 357.29 413.25 347.85 409.00 337.98 406.02 C 322.69 401.14 307.01 397.41 291.07 395.44 C 308.85 378.05 328.67 362.76 350.07 350.08 C 371.36 337.11 394.79 327.66 419.13 322.25 Z" />
<path fill="#dfe1e1" stroke="#dfe1e1" stroke-width="0.09375" opacity="1.00" d=" M 468.27 346.20 C 483.87 338.07 501.26 332.55 519.01 333.09 C 537.35 332.99 554.71 341.04 569.20 351.78 C 593.55 369.93 612.25 396.38 618.84 426.24 C 622.93 445.91 621.48 468.01 609.16 484.62 C 606.96 483.17 604.74 481.76 602.51 480.37 C 607.21 472.47 611.99 463.58 610.71 454.06 C 609.86 447.13 603.40 442.21 596.82 441.16 C 587.85 439.81 578.67 441.79 570.42 445.33 C 558.40 450.59 547.49 458.08 537.37 466.36 C 523.16 477.98 510.70 491.52 498.68 505.33 C 495.84 499.44 492.88 493.47 488.35 488.66 C 476.41 475.95 462.06 465.80 447.24 456.72 C 430.45 446.04 412.68 437.02 394.69 428.55 C 407.73 412.50 422.15 397.67 436.31 382.63 C 431.48 384.78 427.08 387.73 422.73 390.69 C 408.82 400.34 396.51 412.09 385.06 424.51 C 382.60 423.41 380.14 422.34 377.68 421.26 C 383.36 414.13 389.82 407.69 396.31 401.31 C 417.80 380.02 441.28 360.19 468.27 346.20 Z" />
<path fill="#dfe1e1" stroke="#dfe1e1" stroke-width="0.09375" opacity="1.00" d=" M 276.97 410.01 C 279.93 406.44 285.10 408.58 289.09 408.33 C 313.23 410.72 336.67 418.02 359.01 427.28 C 351.78 435.98 344.24 444.43 337.50 453.53 C 335.15 456.52 333.11 459.76 330.57 462.60 C 328.84 464.84 325.71 464.40 323.24 465.02 C 313.64 466.11 305.73 472.51 299.60 479.57 C 290.83 489.69 283.47 500.91 276.09 512.05 C 270.46 520.66 264.29 529.52 262.82 539.96 C 262.21 543.94 262.93 547.96 262.83 551.97 C 262.74 553.99 261.19 555.52 260.11 557.12 C 247.79 573.01 236.33 589.57 225.76 606.67 C 212.29 595.51 199.96 582.09 193.56 565.56 C 187.60 547.76 187.68 527.63 195.52 510.41 C 202.94 493.92 214.58 479.83 226.13 466.10 C 242.41 446.82 258.96 427.71 276.97 410.01 Z" />
<path fill="#dfe1e1" stroke="#dfe1e1" stroke-width="0.09375" opacity="1.00" d=" M 369.19 431.13 C 371.84 432.22 374.51 433.27 377.16 434.37 C 367.47 445.97 358.14 457.86 348.58 469.55 C 345.91 469.23 343.64 467.38 341.19 466.36 C 349.91 454.14 359.15 442.29 369.19 431.13 Z" />
<path fill="#dfe1e1" stroke="#dfe1e1" stroke-width="0.09375" opacity="1.00" d=" M 358.33 474.29 C 367.27 461.88 376.53 449.56 386.84 438.28 C 415.09 452.83 443.68 467.44 468.43 487.61 C 478.16 495.57 487.42 505.41 490.40 517.99 C 491.39 521.20 488.98 523.86 487.29 526.30 C 472.74 546.41 458.27 566.57 443.66 586.64 C 433.23 600.80 423.16 615.30 411.42 628.43 C 398.83 642.50 382.38 653.29 364.08 658.19 C 354.95 660.73 345.44 661.61 335.99 661.37 C 315.68 661.91 296.20 654.18 278.94 644.07 C 269.36 638.19 259.65 632.44 250.69 625.63 C 260.25 605.65 273.13 587.47 287.02 570.30 C 298.01 570.29 308.32 564.54 315.15 556.12 C 327.90 540.17 340.44 524.06 352.81 507.82 C 357.84 500.96 361.96 492.04 359.22 483.46 C 358.42 480.52 355.86 477.09 358.33 474.29 Z" />
<path fill="#dfe1e1" stroke="#dfe1e1" stroke-width="0.09375" opacity="1.00" d=" M 321.97 475.96 C 328.71 474.40 336.66 475.18 341.84 480.16 C 345.60 483.70 347.05 488.95 346.81 493.99 C 338.88 495.45 332.03 500.20 326.57 505.96 C 324.23 505.62 321.89 505.23 319.57 504.80 C 318.46 502.95 317.25 501.15 316.01 499.39 C 315.74 501.33 315.54 503.29 315.33 505.26 C 313.83 502.17 312.85 498.06 308.81 497.59 C 309.75 500.16 310.93 502.63 312.05 505.13 C 308.06 501.50 303.81 498.19 299.45 495.03 C 303.91 485.96 312.04 478.45 321.97 475.96 Z" />
<path fill="#dfe1e1" stroke="#dfe1e1" stroke-width="0.09375" opacity="1.00" d=" M 328.55 510.53 C 332.79 505.24 338.90 501.87 345.23 499.73 C 339.94 508.09 333.30 515.47 327.33 523.33 C 319.17 533.59 311.55 544.43 301.73 553.22 C 308.49 537.78 317.83 523.51 328.55 510.53 Z" />
<path fill="#dfe1e1" stroke="#dfe1e1" stroke-width="0.09375" opacity="1.00" d=" M 229.85 626.57 C 238.24 602.59 254.09 582.33 269.18 562.25 C 271.20 564.07 273.35 565.80 275.08 567.93 C 266.16 581.31 255.80 593.75 247.70 607.68 C 244.02 613.83 240.77 620.23 237.55 626.62 C 234.98 626.63 232.41 626.61 229.85 626.57 Z" />
<path fill="#dfe1e1" stroke="#dfe1e1" stroke-width="0.09375" opacity="1.00" d=" M 665.82 586.95 C 666.81 587.07 667.81 587.19 668.81 587.32 C 668.86 588.37 668.91 589.43 668.96 590.50 C 667.85 590.61 666.75 590.74 665.66 590.87 C 665.71 589.56 665.77 588.25 665.82 586.95 Z" />
</g>
</svg>
